<?xml version="1.0" encoding="UTF-8" standalone="no"?>
<svg
   xmlns:dc="http://purl.org/dc/elements/1.1/"
   xmlns:cc="http://creativecommons.org/ns#"
   xmlns:rdf="http://www.w3.org/1999/02/22-rdf-syntax-ns#"
   xmlns:svg="http://www.w3.org/2000/svg"
   xmlns="http://www.w3.org/2000/svg"
   width="250"
   height="80"
   viewBox="0 0 66.145832 21.166667"
   version="1.1"
   id="svg864">
  <defs
     id="defs858" />
  <metadata
     id="metadata861">
    <rdf:RDF>
      <cc:Work
         rdf:about="">
        <dc:format>image/svg+xml</dc:format>
        <dc:type
           rdf:resource="http://purl.org/dc/dcmitype/StillImage" />
        <dc:title></dc:title>
      </cc:Work>
    </rdf:RDF>
  </metadata>
  <g
     id="layer1">
    <rect
       style="fill:#14274c;fill-opacity:1;stroke-width:0.519929"
       id="rect1427"
       width="66.145836"
       height="21.166666"
       x="0"
       y="-4.4408921e-16" />
    <g
       id="g1493"
       transform="matrix(1.5456172,0,0,1.5893974,-2.5470286,-10.739497)">
      <path
         style="fill:#fffff7;fill-opacity:1;fill-rule:evenodd;stroke:none;stroke-width:0.0661455"
         d="m 6.1859445,16.651505 c 0.08819,-0.15434 0.04409,-0.374825 0.06614,-0.551215 -0.08819,-0.33073 -0.15434,-0.661457 -0.352777,-0.992187 -0.02205,-0.06615 -0.0882,-0.110243 -0.110243,-0.176388 -0.264585,-0.35278 -0.617362,-0.683507 -1.014237,-0.97014 -0.110243,-0.06615 -0.220485,-0.15434 -0.352778,-0.198437 -0.15434,-0.06614 -0.352777,-0.110243 -0.396875,0.0882 -0.02205,0.0441 -0.02205,0.13229 -0.02205,0.198437 0,0.06614 0,0.15434 0,0.198438 0,0 0.02205,0.02205 0.0441,0.0441 0.02205,0.08819 0.02205,0.176387 0.06615,0.28663 0.0882,0.154342 0.198437,0.35278 0.330727,0.529167 0.220488,0.30868 0.50712,0.595313 0.8158,0.859895 0.30868,0.264585 0.61736,0.50712 0.926043,0.683508 m 1.036282,1.146527 c 0.17639,0.110245 0.374828,0.132293 0.573265,0.15434 0.220485,0 0.440973,0 0.661458,-0.06614 0.132293,-0.0441 0.308683,-0.0882 0.440973,-0.15434 0,0 0,-0.02205 0,-0.02205 0,0 0,0 0,0 -0.485071,-0.132292 -0.992188,-0.15434 -1.477258,0 -0.06615,0.02205 -0.15434,0.02205 -0.198438,0.08819 m -0.573262,-0.859895 c 0.02205,0 0.04409,0.02205 0.06614,0.02205 0.242535,0.110243 0.440972,0.242535 0.683507,0.33073 0.48507,0.176388 1.014235,0.28663 1.499306,0.330728 0.110242,0.02205 0.17639,0.02205 0.286632,0.02205 0.08819,0 0.286633,-0.02205 0.352778,0.02205 0,0 0,0 0,0 0,0.02205 0,0.02205 0,0.02205 0,0 0,0.02205 -0.02205,0.02205 -0.242535,-0.02205 -0.48507,0.04409 -0.7717,0.132292 -0.17639,0.06614 -0.352781,0.15434 -0.507121,0.286633 -0.418922,0.352777 -0.61736,0.881945 -0.08819,1.168575 0.242532,0.132292 0.61736,0.132292 0.837845,-0.02205 0.0441,-0.02205 0.0882,-0.06614 0.110245,-0.08819 0.176388,-0.176388 0.264583,-0.44097 0.242535,-0.639408 -0.02205,-0.06615 -0.06615,-0.154342 -0.110245,-0.220487 -0.04409,-0.04409 -0.110242,-0.06614 -0.110242,-0.132293 0.06615,0.02205 0.110242,0.0882 0.15434,0.154343 0.198437,0.30868 0.198437,0.705555 -0.15434,0.92604 -0.33073,0.220487 -0.948091,0.220487 -1.256771,0 -0.0882,-0.06614 -0.17639,-0.13229 -0.198437,-0.198438 -0.132293,-0.286632 0.0441,-0.61736 0.352777,-0.881945 0.110243,-0.110242 0.242535,-0.15434 0.352778,-0.242532 -0.220485,0.04409 -0.46302,0.06614 -0.705555,0.04409 -0.220488,-0.02205 -0.463023,-0.02205 -0.683508,-0.198438 0.06615,-0.110242 0.198438,-0.176387 0.286633,-0.198437 0.242535,-0.06614 0.529165,-0.04409 0.749652,-0.08819 -0.352777,-0.06615 -0.705555,-0.220487 -1.058332,-0.374827 -0.132293,-0.04409 -0.264585,-0.06614 -0.35278,-0.176388 -0.13229,0 -0.242533,-0.132292 -0.374825,-0.154342 -0.132293,0.418925 -0.33073,0.837847 -0.749653,1.256772 -0.06615,0.06614 -0.15434,0.13229 -0.242535,0.198438 -0.440972,0.28663 -0.926042,0.440972 -1.389065,0.485067 -0.396875,0.02205 -0.815797,-0.0441 -1.190625,-0.264582 -0.066145,-0.04409 -0.1322898,-0.06614 -0.1543398,-0.132293 0.044095,-0.04409 0.066147,0.02205 0.088195,0.02205 0.088195,0.0441 0.1763898,0.110243 0.2866328,0.132293 0.352777,0.15434 0.727605,0.198437 1.10243,0.15434 0.08819,0 0.15434,-0.0441 0.242535,-0.0441 0.220485,-0.06615 0.46302,-0.132293 0.661457,-0.242535 0.0882,-0.02205 0.17639,-0.06615 0.242535,-0.110243 0.0441,-0.02205 0.110243,-0.08819 0.15434,-0.132292 0.198438,-0.132293 0.396875,-0.33073 0.529168,-0.507118 0.0882,-0.132292 0.15434,-0.264585 0.198437,-0.374827 0.0882,-0.15434 0.15434,-0.330728 0.15434,-0.48507 -0.46302,-0.264583 -0.970137,-0.661458 -1.43316,-1.08038 -0.176387,-0.17639 -0.30868,-0.352778 -0.440972,-0.529168 -0.330728,-0.440972 -0.507118,-0.926042 -0.396875,-1.344965 0.0441,-0.06615 0.06615,-0.110242 0.132292,-0.15434 0.0882,-0.0441 0.198438,0 0.33073,0.02205 0.440973,0.15434 0.970138,0.573263 1.322915,0.992188 0.308683,0.352777 0.463023,0.727602 0.551215,1.10243 0.06615,0.30868 0.06615,0.63941 0.02205,0.926042 0.132293,0.08819 0.264585,0.15434 0.396875,0.242533 m 7.4303825,-0.970138 c 0.33073,-0.264582 0.617363,-0.551215 0.837848,-0.859895 0.132292,-0.17639 0.242535,-0.374827 0.30868,-0.529167 0.04409,-0.110243 0.06615,-0.198438 0.08819,-0.286633 0,-0.02205 0.02205,-0.0441 0.02205,-0.0441 0.02205,-0.0441 0.02205,-0.13229 0.02205,-0.198437 0,-0.06615 0,-0.15434 -0.02205,-0.198438 -0.06614,-0.198437 -0.242535,-0.15434 -0.418925,-0.08819 -0.13229,0.0441 -0.242533,0.13229 -0.352778,0.198435 -0.374825,0.286632 -0.727602,0.617362 -0.992187,0.97014 -0.02205,0.06615 -0.08819,0.110242 -0.110243,0.17639 -0.198437,0.330727 -0.286632,0.661457 -0.352777,0.992187 0.02205,0.176388 -0.02205,0.396875 0.06615,0.551215 0.286632,-0.17639 0.617362,-0.418925 0.903995,-0.683507 m -2.138718,1.74184 c -0.485067,-0.15434 -0.992187,-0.132293 -1.477255,0 -0.02205,0 -0.02205,0 -0.02205,0 0,0 0.02205,0.02205 0.02205,0.02205 0.13229,0.06615 0.30868,0.110242 0.440973,0.15434 0.220485,0.06615 0.44097,0.06615 0.661457,0.06615 0.198438,-0.02205 0.396875,-0.0441 0.573263,-0.15434 -0.04409,-0.06615 -0.13229,-0.06615 -0.198438,-0.08819 m 1.14653,-1.014237 c -0.02205,-0.28663 -0.0441,-0.61736 0.04409,-0.92604 0.06615,-0.374828 0.242535,-0.749653 0.529168,-1.102433 0.352777,-0.418922 0.903992,-0.837845 1.344965,-0.992187 0.110242,-0.02205 0.220487,-0.06615 0.33073,-0.02205 0.06615,0.0441 0.0882,0.08819 0.132292,0.154342 0.110243,0.418923 -0.08819,0.903993 -0.396875,1.344965 -0.132292,0.176388 -0.286632,0.352778 -0.440972,0.529165 -0.463023,0.418925 -0.97014,0.8158 -1.45521,1.080383 0.02205,0.15434 0.08819,0.33073 0.17639,0.48507 0.0441,0.110242 0.110242,0.242535 0.198437,0.374827 0.132293,0.176388 0.33073,0.374825 0.507118,0.507118 0.06614,0.04409 0.132292,0.110242 0.17639,0.13229 0.06614,0.0441 0.15434,0.0882 0.220485,0.110245 0.220487,0.110242 0.46302,0.176387 0.661457,0.242535 0.08819,0 0.17639,0.04409 0.264585,0.04409 0.352778,0.04409 0.749653,0 1.10243,-0.15434 0.08819,-0.02205 0.17639,-0.08819 0.286633,-0.13229 0.02205,0 0.04409,-0.06615 0.08819,-0.02205 -0.02205,0.06614 -0.110245,0.08819 -0.154343,0.13229 -0.374825,0.220487 -0.79375,0.286632 -1.190625,0.264585 -0.485067,-0.04409 -0.970137,-0.198438 -1.41111,-0.48507 -0.08819,-0.06615 -0.15434,-0.132293 -0.220485,-0.198438 -0.440972,-0.418925 -0.63941,-0.837847 -0.749655,-1.256772 -0.13229,0.02205 -0.264582,0.154342 -0.374825,0.154342 -0.110242,0.110243 -0.242535,0.13229 -0.352777,0.176388 -0.352778,0.15434 -0.705555,0.30868 -1.058335,0.374827 0.220487,0.0441 0.50712,0.02205 0.727605,0.08819 0.110242,0.02205 0.242535,0.08819 0.286632,0.198437 -0.198437,0.17639 -0.440972,0.17639 -0.683507,0.198438 -0.220485,0.02205 -0.46302,0 -0.683508,-0.04409 0.110245,0.08819 0.242535,0.13229 0.352778,0.242532 0.286632,0.264585 0.48507,0.595313 0.35278,0.881945 -0.02205,0.06615 -0.110245,0.132293 -0.198438,0.198438 -0.308682,0.220487 -0.926042,0.220487 -1.256772,0 -0.3527775,-0.220485 -0.3748245,-0.61736 -0.15434,-0.92604 0.04409,-0.06615 0.08819,-0.132293 0.15434,-0.154343 0,0.06615 -0.06615,0.08819 -0.110243,0.132293 -0.04409,0.06614 -0.08819,0.15434 -0.110242,0.220487 -0.044099,0.198438 0.04409,0.46302 0.242535,0.639408 0.02205,0.02205 0.06614,0.06615 0.08819,0.0882 0.220488,0.15434 0.617363,0.15434 0.859898,0.02205 0.529165,-0.28663 0.330727,-0.815798 -0.0882,-1.168575 -0.15434,-0.132293 -0.33073,-0.220485 -0.529168,-0.286633 -0.264582,-0.08819 -0.507117,-0.15434 -0.7716995,-0.13229 0,0 0,-0.02205 0,-0.02205 0,0 0,0 0,-0.02205 0,0 0,0 0,0 0.04409,-0.0441 0.2645825,-0.02205 0.3527775,-0.02205 0.0882,0 0.176387,0 0.264582,-0.02205 0.48507,-0.0441 1.014238,-0.154342 1.499305,-0.33073 0.242535,-0.08819 0.463023,-0.220487 0.705558,-0.33073 0.02205,0 0.02205,-0.02205 0.06615,-0.02205 0.132292,-0.08819 0.264582,-0.15434 0.374827,-0.242535 m 0.15434,-6.50434 c -0.08819,0.15434 -0.04409,0.352778 -0.06615,0.551215 0.08819,0.30868 0.15434,0.661458 0.352777,0.992188 0.02205,0.0441 0.08819,0.110242 0.110245,0.17639 0.264583,0.330727 0.61736,0.683505 1.014235,0.94809 0.110243,0.0882 0.220488,0.15434 0.33073,0.220485 0.176388,0.06615 0.352778,0.110242 0.418923,-0.110243 0.02205,-0.04409 0.02205,-0.110242 0.02205,-0.198437 0,-0.0441 0,-0.132293 0,-0.17639 -0.02205,-0.02205 -0.02205,-0.02205 -0.0441,-0.04409 -0.02205,-0.0882 -0.02205,-0.17639 -0.06615,-0.286633 -0.08819,-0.17639 -0.198437,-0.352777 -0.330727,-0.529167 -0.220488,-0.33073 -0.507118,-0.595313 -0.8158,-0.881945 -0.30868,-0.242535 -0.61736,-0.507118 -0.92604,-0.661458 M 12.205215,9.0447272 c -0.17639,-0.1102425 -0.374828,-0.1322925 -0.573265,-0.15434 -0.220485,-0.02205 -0.440973,0 -0.661458,0.066145 -0.132292,0.02205 -0.30868,0.088195 -0.440972,0.15434 0,0 0,0 0,0 0,0.02205 0,0.02205 0,0.02205 0.48507,0.1102425 0.992187,0.13229 1.477257,0 0.06615,-0.02205 0.15434,-0.044097 0.198438,-0.088195 m 0.573262,0.8378475 c -0.02205,0 -0.04409,0 -0.06614,-0.02205 -0.242535,-0.088192 -0.46302,-0.220485 -0.683507,-0.30868 -0.48507,-0.1984375 -1.014235,-0.30868 -1.499305,-0.3527775 -0.110243,0 -0.17639,0 -0.286633,0 -0.08819,0 -0.2866315,0 -0.3527765,-0.044098 0,0 0,0 0,0 0,0 0,0 0,-0.02205 0,0 0,0 0,0 0.2645815,0 0.5071165,-0.066147 0.7937495,-0.1543425 0.17639,-0.044095 0.352777,-0.15434 0.507117,-0.28663 0.418925,-0.33073 0.617363,-0.8598975 0.08819,-1.1465275 -0.242535,-0.1322925 -0.61736,-0.1322925 -0.837847,0 -0.04409,0.044098 -0.08819,0.066145 -0.110243,0.1102425 -0.17639,0.1763875 -0.286632,0.4189225 -0.242535,0.63941 0.02205,0.044097 0.06614,0.15434 0.110243,0.220485 0.0441,0.044097 0.110245,0.044097 0.110245,0.1102425 -0.06615,-0.02205 -0.110245,-0.066145 -0.154343,-0.13229 -0.1984365,-0.33073 -0.1984365,-0.705555 0.154343,-0.94809 0.330727,-0.2204875 0.94809,-0.1984375 1.25677,0.02205 0.08819,0.044098 0.176387,0.1322925 0.198437,0.1984375 0.132293,0.2866325 -0.0441,0.6173625 -0.352777,0.881945 -0.110243,0.088195 -0.242535,0.15434 -0.352778,0.220485 0.220485,-0.02205 0.46302,-0.066145 0.705555,-0.044097 0.220485,0.02205 0.46302,0.044097 0.683508,0.2204875 -0.06615,0.1102425 -0.198438,0.15434 -0.286633,0.1984375 -0.242535,0.044097 -0.529167,0.044097 -0.749652,0.066145 0.352777,0.088195 0.705555,0.2204875 1.058332,0.3748275 0.132293,0.066145 0.264583,0.088195 0.352778,0.1763875 0.132292,0.02205 0.242535,0.1543403 0.374827,0.1763903 0.13229,-0.4409728 0.330728,-0.8598953 0.749653,-1.2567703 0.06615,-0.066147 0.132292,-0.1322925 0.242535,-0.1984375 0.440972,-0.3086825 0.92604,-0.4630225 1.389062,-0.48507 0.396875,-0.02205 0.815798,0.044098 1.190625,0.2645825 0.06615,0.02205 0.13229,0.066145 0.15434,0.1322925 -0.04409,0.044097 -0.06614,-0.02205 -0.08819,-0.02205 -0.0882,-0.066145 -0.176387,-0.1102425 -0.286632,-0.15434 -0.352778,-0.13229 -0.749653,-0.1763875 -1.10243,-0.13229 -0.08819,0 -0.15434,0.02205 -0.242535,0.02205 -0.220485,0.066145 -0.46302,0.1322925 -0.661458,0.242535 -0.08819,0.044097 -0.17639,0.066145 -0.242535,0.1102425 -0.04409,0.044097 -0.110242,0.088195 -0.15434,0.1322925 -0.198437,0.15434 -0.396875,0.3307275 -0.529167,0.529165 -0.08819,0.1322925 -0.15434,0.242535 -0.198438,0.3748275 -0.08819,0.15434 -0.15434,0.33073 -0.176387,0.4850703 0.485067,0.264583 0.992187,0.63941 1.455207,1.080383 0.15434,0.15434 0.30868,0.330727 0.440973,0.507117 0.33073,0.440973 0.507117,0.94809 0.396875,1.367013 -0.0441,0.0441 -0.06615,0.110245 -0.132293,0.15434 -0.08819,0.0441 -0.198437,0 -0.330727,-0.0441 -0.440973,-0.132293 -0.97014,-0.551218 -1.344968,-0.97014 -0.28663,-0.374828 -0.44097,-0.749653 -0.529165,-1.10243 -0.06615,-0.30868 -0.06615,-0.66146 -0.02205,-0.948091 -0.13229,-0.0882 -0.264582,-0.1322923 -0.396875,-0.2425348 M 5.3481025,10.85271 c -0.33073,0.286633 -0.617363,0.551215 -0.837848,0.881945 -0.132292,0.17639 -0.242535,0.352778 -0.30868,0.529168 -0.0441,0.110242 -0.06615,0.198437 -0.0882,0.286632 0,0.02205 -0.02205,0.02205 -0.02205,0.0441 -0.02205,0.0441 -0.02205,0.132293 -0.02205,0.17639 0,0.0882 0,0.15434 0.02205,0.198438 0.06615,0.220485 0.242535,0.17639 0.418925,0.110242 0.13229,-0.06615 0.220485,-0.13229 0.330728,-0.220485 0.396875,-0.264585 0.749655,-0.617362 1.014237,-0.94809 0.02205,-0.06615 0.0882,-0.132292 0.110243,-0.17639 0.198437,-0.33073 0.286632,-0.683507 0.352777,-0.992187 -0.02205,-0.198438 0.02205,-0.396875 -0.06615,-0.551215 -0.286632,0.15434 -0.617362,0.418922 -0.903992,0.661457 m 2.138715,-1.7197903 c 0.48507,0.13229 0.992187,0.1102425 1.477255,0 0,0 0.02205,0 0.02205,-0.02205 -0.02205,0 -0.02205,0 -0.02205,0 -0.13229,-0.066145 -0.30868,-0.13229 -0.44097,-0.15434 -0.220488,-0.066145 -0.440973,-0.088195 -0.66146,-0.066145 -0.198438,0.02205 -0.396875,0.044097 -0.573263,0.15434 0.04409,0.044097 0.13229,0.066145 0.198438,0.088195 m -1.146528,0.9921873 c 0.02205,0.286631 0.0441,0.639411 -0.0441,0.948091 -0.06615,0.352777 -0.242535,0.727602 -0.529167,1.10243 -0.352778,0.418922 -0.903993,0.837847 -1.344965,0.97014 -0.110243,0.0441 -0.220485,0.08819 -0.33073,0.0441 -0.06614,-0.0441 -0.08819,-0.110243 -0.13229,-0.15434 -0.110245,-0.418923 0.06615,-0.92604 0.396875,-1.367013 0.13229,-0.17639 0.28663,-0.352777 0.440972,-0.507117 0.46302,-0.440973 0.970138,-0.8158 1.455208,-1.080383 -0.02205,-0.1543403 -0.0882,-0.3307303 -0.17639,-0.4850703 -0.044085,-0.1322975 -0.110233,-0.24254 -0.198428,-0.3748325 -0.13229,-0.1984375 -0.330727,-0.374825 -0.507117,-0.529165 -0.066145,-0.044097 -0.132293,-0.088195 -0.176388,-0.1322925 -0.066147,-0.044097 -0.154342,-0.066145 -0.220487,-0.1102425 -0.220485,-0.1102425 -0.46302,-0.17639 -0.661458,-0.242535 -0.08819,0 -0.17639,-0.02205 -0.264585,-0.02205 -0.352777,-0.044097 -0.749652,0 -1.10243,0.13229 -0.08819,0.044097 -0.176387,0.088195 -0.286632,0.15434 -0.02205,0 -0.044095,0.066147 -0.088193,0.02205 0.02205,-0.066147 0.110243,-0.1102425 0.15434,-0.1322925 0.374825,-0.220485 0.79375,-0.2866325 1.190625,-0.2645825 0.46302,0.02205 0.970138,0.1763875 1.41111,0.48507 0.08819,0.066145 0.15434,0.13229 0.220488,0.1984375 0.418922,0.396875 0.63941,0.8157975 0.749652,1.2567703 0.13229,-0.02205 0.264583,-0.1543403 0.374825,-0.1763903 0.110245,-0.088192 0.242535,-0.1102425 0.352778,-0.1763875 0.35278,-0.15434 0.705557,-0.2866325 1.058335,-0.3748275 -0.220488,-0.02205 -0.507118,-0.02205 -0.727605,-0.066145 -0.110243,-0.044097 -0.242535,-0.088195 -0.30868,-0.1984375 0.220485,-0.17639 0.46302,-0.1984375 0.705555,-0.2204875 0.220487,-0.02205 0.46302,0.02205 0.683507,0.044097 -0.110242,-0.066145 -0.242535,-0.13229 -0.352777,-0.220485 -0.30868,-0.2645825 -0.48507,-0.5953125 -0.352778,-0.881945 0.02205,-0.066145 0.110243,-0.15434 0.198438,-0.1984375 0.30868,-0.220485 0.92604,-0.242535 1.25677,-0.02205 0.352778,0.242535 0.374825,0.61736 0.15434,0.94809 -0.04409,0.066145 -0.08819,0.1102425 -0.15434,0.13229 0,-0.066145 0.06614,-0.066145 0.110243,-0.1102425 0.0441,-0.066145 0.0882,-0.1763875 0.110242,-0.220485 0.04409,-0.2204875 -0.0441,-0.4630225 -0.242535,-0.63941 -0.02205,-0.044097 -0.06615,-0.066145 -0.08819,-0.1102425 -0.220488,-0.1322925 -0.617363,-0.1322925 -0.859898,0 -0.529165,0.28663 -0.330728,0.8157975 0.08819,1.1465275 0.15434,0.13229 0.33073,0.242535 0.529168,0.2866325 0.264582,0.088192 0.507117,0.15434 0.7717,0.15434 0,0 0,0 0,0 0,0.02205 0,0.02205 0,0.02205 0,0 0,0 0,0 -0.06615,0.044098 -0.264583,0.044098 -0.352778,0.044098 -0.08819,0 -0.176387,0 -0.264582,0 -0.485071,0.044097 -1.014236,0.15434 -1.499306,0.3527775 -0.242535,0.088195 -0.463022,0.2204875 -0.705555,0.30868 -0.02205,0.02205 -0.0441,0.02205 -0.06615,0.02205 -0.13229,0.1102425 -0.264583,0.1543403 -0.374825,0.2425353 z"
         id="path3733" />
      <text
         xml:space="preserve"
         style="font-style:normal;font-variant:normal;font-weight:normal;font-stretch:normal;font-size:7.05555px;line-height:1.25;font-family:'Times New Roman';-inkscape-font-specification:'Times New Roman, Normal';font-variant-ligatures:normal;font-variant-caps:normal;font-variant-numeric:normal;font-variant-east-asian:normal;fill:#ffffff;fill-opacity:1;stroke:none;stroke-width:0.132291"
         x="7.4192085"
         y="15.608197"
         id="text1467"><tspan
           id="tspan1465"
           x="7.4192085"
           y="15.608197"
           style="font-style:normal;font-variant:normal;font-weight:normal;font-stretch:normal;font-size:7.05555px;font-family:'Times New Roman';-inkscape-font-specification:'Times New Roman, Normal';font-variant-ligatures:normal;font-variant-caps:normal;font-variant-numeric:normal;font-variant-east-asian:normal;fill:#ffffff;stroke-width:0.132291">D</tspan></text>
    </g>
    <g
       id="g1504"
       transform="matrix(1.0528487,0,0,0.9571352,6.239804,-4.1945534)">
      <g
         aria-label="DEANE"
         id="text1471"
         style="font-style:normal;font-variant:normal;font-weight:normal;font-stretch:normal;font-size:10.5833px;line-height:1.25;font-family:'Times New Roman';-inkscape-font-specification:'Times New Roman, Normal';font-variant-ligatures:normal;font-variant-caps:normal;font-variant-numeric:normal;font-variant-east-asian:normal;fill:#ffffff;fill-opacity:1;stroke:none;stroke-width:0.264583">
        <path
           d="m 20.520215,16.791691 v -0.191202 h 0.263549 q 0.444416,0 0.63045,-0.28422 0.113688,-0.170532 0.113688,-0.764809 v -4.526841 q 0,-0.656288 -0.144694,-0.821652 Q 21.181671,9.9755911 20.783764,9.9755911 H 20.520215 V 9.7843889 h 2.85253 q 1.570958,0 2.387443,0.3565661 0.821653,0.356566 1.317745,1.188554 0.50126,0.831988 0.50126,1.922357 0,1.462439 -0.888832,2.444288 -0.997352,1.095537 -3.038564,1.095537 z m 1.999871,-0.506428 q 0.656289,0.144694 1.100705,0.144694 1.198889,0 1.989536,-0.842323 0.790647,-0.842323 0.790647,-2.284091 0,-1.452103 -0.790647,-2.289259 -0.790647,-0.837155 -2.030877,-0.837155 -0.465087,0 -1.059364,0.149861 z"
           style="font-style:normal;font-variant:normal;font-weight:normal;font-stretch:normal;font-size:10.5833px;font-family:'Times New Roman';-inkscape-font-specification:'Times New Roman, Normal';font-variant-ligatures:normal;font-variant-caps:normal;font-variant-numeric:normal;font-variant-east-asian:normal;fill:#ffffff;stroke-width:0.264583"
           id="path1530" />
        <path
           d="m 30.194012,10.166793 v 2.769848 h 1.539953 q 0.599445,0 0.800982,-0.180867 0.268717,-0.237711 0.299722,-0.837155 h 0.191203 v 2.43912 h -0.191203 q -0.07235,-0.511595 -0.144693,-0.656289 -0.09302,-0.180867 -0.30489,-0.284219 -0.211873,-0.103353 -0.651121,-0.103353 h -1.539953 v 2.309929 q 0,0.465087 0.04134,0.568439 0.04134,0.09819 0.144694,0.160197 0.103352,0.05684 0.392739,0.05684 h 1.188554 q 0.594278,0 0.862994,-0.08268 0.268717,-0.08268 0.516763,-0.32556 0.320393,-0.320393 0.656288,-0.966346 h 0.206705 l -0.604612,1.756993 h -5.40017 v -0.191202 h 0.248046 q 0.248046,0 0.470254,-0.118856 0.165364,-0.08268 0.222208,-0.248046 0.06201,-0.165364 0.06201,-0.676959 v -4.552679 q 0,-0.666624 -0.134359,-0.821653 Q 28.881435,9.9755911 28.447354,9.9755911 H 28.199308 V 9.7843889 h 5.40017 l 0.07752,1.5347851 H 33.47546 q -0.10852,-0.552936 -0.242878,-0.759641 -0.129191,-0.206705 -0.387572,-0.315225 -0.206705,-0.07752 -0.728636,-0.07752 z"
           style="font-style:normal;font-variant:normal;font-weight:normal;font-stretch:normal;font-size:10.5833px;font-family:'Times New Roman';-inkscape-font-specification:'Times New Roman, Normal';font-variant-ligatures:normal;font-variant-caps:normal;font-variant-numeric:normal;font-variant-east-asian:normal;fill:#ffffff;stroke-width:0.264583"
           id="path1532" />
        <path
           d="M 39.289035,14.445588 H 36.576031 L 36.10061,15.55146 q -0.1757,0.408243 -0.1757,0.60978 0,0.160197 0.149861,0.28422 0.155029,0.118855 0.661457,0.155029 v 0.191202 h -2.206577 v -0.191202 q 0.439248,-0.07751 0.568439,-0.201538 0.263549,-0.248046 0.583942,-1.007687 L 38.14699,9.6241925 h 0.180867 l 2.43912,5.8290825 q 0.294554,0.702798 0.532265,0.91467 0.242879,0.206706 0.671792,0.232544 v 0.191202 h -2.764681 v -0.191202 q 0.418578,-0.02067 0.563272,-0.139526 0.149861,-0.118856 0.149861,-0.289387 0,-0.227376 -0.206705,-0.718301 z m -0.144693,-0.382404 -1.188554,-2.83186 -1.21956,2.83186 z"
           style="font-style:normal;font-variant:normal;font-weight:normal;font-stretch:normal;font-size:10.5833px;font-family:'Times New Roman';-inkscape-font-specification:'Times New Roman, Normal';font-variant-ligatures:normal;font-variant-caps:normal;font-variant-numeric:normal;font-variant-east-asian:normal;fill:#ffffff;stroke-width:0.264583"
           id="path1534" />
        <path
           d="m 41.950364,9.7843889 h 1.901686 l 4.283963,5.2554761 v -4.041084 q 0,-0.645953 -0.144694,-0.80615 Q 47.800117,9.9755911 47.386707,9.9755911 H 47.143829 V 9.7843889 h 2.439119 v 0.1912022 h -0.248046 q -0.444416,0 -0.63045,0.2687169 -0.113688,0.165364 -0.113688,0.754473 v 5.906598 H 48.404729 L 43.784871,11.26233 v 4.314969 q 0,0.645953 0.139526,0.806149 0.19637,0.217041 0.604612,0.217041 h 0.248046 v 0.191202 h -2.439119 v -0.191202 h 0.242878 q 0.449584,0 0.635618,-0.268717 0.113688,-0.165364 0.113688,-0.754473 V 10.704226 Q 43.02523,10.34766 42.865034,10.233972 42.710005,10.120285 42.405115,10.0221 42.255254,9.9755911 41.950364,9.9755911 Z"
           style="font-style:normal;font-variant:normal;font-weight:normal;font-stretch:normal;font-size:10.5833px;font-family:'Times New Roman';-inkscape-font-specification:'Times New Roman, Normal';font-variant-ligatures:normal;font-variant-caps:normal;font-variant-numeric:normal;font-variant-east-asian:normal;fill:#ffffff;stroke-width:0.264583"
           id="path1536" />
        <path
           d="m 51.944553,10.166793 v 2.769848 h 1.539953 q 0.599445,0 0.800982,-0.180867 0.268717,-0.237711 0.299723,-0.837155 h 0.191202 v 2.43912 h -0.191202 q -0.07235,-0.511595 -0.144694,-0.656289 -0.09302,-0.180867 -0.30489,-0.284219 -0.211873,-0.103353 -0.651121,-0.103353 h -1.539953 v 2.309929 q 0,0.465087 0.04134,0.568439 0.04134,0.09819 0.144694,0.160197 0.103352,0.05684 0.39274,0.05684 h 1.188554 q 0.594277,0 0.862993,-0.08268 0.268717,-0.08268 0.516763,-0.32556 0.320393,-0.320393 0.656289,-0.966346 h 0.206705 l -0.604613,1.756993 h -5.40017 v -0.191202 h 0.248046 q 0.248047,0 0.470255,-0.118856 0.165364,-0.08268 0.222207,-0.248046 0.06201,-0.165364 0.06201,-0.676959 v -4.552679 q 0,-0.666624 -0.134358,-0.821653 Q 50.631976,9.9755911 50.197895,9.9755911 H 49.949849 V 9.7843889 h 5.40017 l 0.07751,1.5347851 h -0.201538 q -0.10852,-0.552936 -0.242878,-0.759641 -0.129191,-0.206705 -0.387572,-0.315225 -0.206705,-0.07752 -0.728636,-0.07752 z"
           style="font-style:normal;font-variant:normal;font-weight:normal;font-stretch:normal;font-size:10.5833px;font-family:'Times New Roman';-inkscape-font-specification:'Times New Roman, Normal';font-variant-ligatures:normal;font-variant-caps:normal;font-variant-numeric:normal;font-variant-east-asian:normal;fill:#ffffff;stroke-width:0.264583"
           id="path1538" />
      </g>
      <g
         aria-label="PROJECT MANAGEMENT
"
         transform="scale(0.91064196,1.0981264)"
         id="text1486"
         style="font-style:normal;font-variant:normal;font-weight:normal;font-stretch:normal;font-size:3.21254px;line-height:1.25;font-family:Arial;-inkscape-font-specification:'Arial, Normal';font-variant-ligatures:normal;font-variant-caps:normal;font-variant-numeric:normal;font-variant-east-asian:normal;fill:#ffffff;fill-opacity:1;stroke:none;stroke-width:0.24094">
        <path
           d="M 23.114881,19.316681 V 17.01708 h 0.867449 q 0.229019,0 0.349803,0.02196 0.169411,0.02824 0.28392,0.108235 0.11451,0.07843 0.183529,0.221176 0.07059,0.142745 0.07059,0.313725 0,0.293332 -0.186666,0.497253 -0.186666,0.202353 -0.674508,0.202353 h -0.589802 v 0.934899 z m 0.304313,-1.206271 h 0.594508 q 0.294901,0 0.418822,-0.109804 0.123922,-0.109803 0.123922,-0.309019 0,-0.144313 -0.07373,-0.246273 -0.07216,-0.103529 -0.191372,-0.136471 -0.07686,-0.02039 -0.28392,-0.02039 h -0.588234 z"
           style="font-style:normal;font-variant:normal;font-weight:normal;font-stretch:normal;font-size:3.21254px;font-family:Arial;-inkscape-font-specification:'Arial, Normal';font-variant-ligatures:normal;font-variant-caps:normal;font-variant-numeric:normal;font-variant-east-asian:normal;fill:#ffffff;stroke-width:0.24094"
           id="path1541" />
        <path
           d="M 25.262326,19.316681 V 17.01708 h 1.019605 q 0.30745,0 0.46745,0.06274 0.159999,0.06118 0.255685,0.218038 0.09569,0.156862 0.09569,0.346666 0,0.244705 -0.158431,0.412548 -0.158431,0.167842 -0.48941,0.213332 0.120784,0.05804 0.183529,0.11451 0.133333,0.122352 0.252548,0.305881 l 0.399999,0.625881 h -0.382744 l -0.304313,-0.47843 q -0.133333,-0.207058 -0.219607,-0.316862 -0.08627,-0.109804 -0.155294,-0.153725 -0.06745,-0.04392 -0.138039,-0.06118 -0.05176,-0.01098 -0.169411,-0.01098 h -0.35294 v 1.021174 z m 0.304313,-1.284702 h 0.654116 q 0.208627,0 0.326273,-0.04235 0.117647,-0.04392 0.178823,-0.138039 0.06118,-0.09569 0.06118,-0.207058 0,-0.163137 -0.119216,-0.268235 -0.117646,-0.105097 -0.373332,-0.105097 h -0.727841 z"
           style="font-style:normal;font-variant:normal;font-weight:normal;font-stretch:normal;font-size:3.21254px;font-family:Arial;-inkscape-font-specification:'Arial, Normal';font-variant-ligatures:normal;font-variant-caps:normal;font-variant-numeric:normal;font-variant-east-asian:normal;fill:#ffffff;stroke-width:0.24094"
           id="path1543" />
        <path
           d="m 27.485065,18.196684 q 0,-0.572547 0.30745,-0.895684 0.30745,-0.324705 0.793723,-0.324705 0.318431,0 0.574116,0.152157 0.255686,0.152156 0.389019,0.425097 0.134901,0.271371 0.134901,0.616468 0,0.349803 -0.141176,0.625881 -0.141176,0.276078 -0.399999,0.418822 -0.258823,0.141176 -0.55843,0.141176 -0.324705,0 -0.58039,-0.156862 -0.255686,-0.156862 -0.38745,-0.428234 -0.131764,-0.271372 -0.131764,-0.574116 z m 0.313724,0.0047 q 0,0.415685 0.222745,0.655684 0.224313,0.238431 0.561567,0.238431 0.343528,0 0.564704,-0.241568 0.222745,-0.241568 0.222745,-0.685488 0,-0.280784 -0.09569,-0.489411 -0.09412,-0.210195 -0.277647,-0.324704 -0.18196,-0.116079 -0.40941,-0.116079 -0.323137,0 -0.556861,0.222745 -0.232157,0.221176 -0.232157,0.74039 z"
           style="font-style:normal;font-variant:normal;font-weight:normal;font-stretch:normal;font-size:3.21254px;font-family:Arial;-inkscape-font-specification:'Arial, Normal';font-variant-ligatures:normal;font-variant-caps:normal;font-variant-numeric:normal;font-variant-east-asian:normal;fill:#ffffff;stroke-width:0.24094"
           id="path1545" />
        <path
           d="m 29.921136,18.664134 0.274509,-0.03765 q 0.01098,0.263528 0.09882,0.360783 0.08784,0.09726 0.243136,0.09726 0.11451,0 0.197647,-0.05176 0.08314,-0.05333 0.114509,-0.142745 0.03137,-0.09098 0.03137,-0.288626 V 17.01708 h 0.304312 v 1.567054 q 0,0.288627 -0.07059,0.447058 -0.06902,0.15843 -0.221175,0.241567 -0.150588,0.08314 -0.354509,0.08314 -0.302744,0 -0.464313,-0.174117 -0.159999,-0.174117 -0.153725,-0.517645 z"
           style="font-style:normal;font-variant:normal;font-weight:normal;font-stretch:normal;font-size:3.21254px;font-family:Arial;-inkscape-font-specification:'Arial, Normal';font-variant-ligatures:normal;font-variant-caps:normal;font-variant-numeric:normal;font-variant-east-asian:normal;fill:#ffffff;stroke-width:0.24094"
           id="path1547" />
        <path
           d="M 31.688974,19.316681 V 17.01708 h 1.662741 v 0.271371 h -1.358428 v 0.704312 h 1.272153 v 0.269803 h -1.272153 v 0.782743 h 1.411761 v 0.271372 z"
           style="font-style:normal;font-variant:normal;font-weight:normal;font-stretch:normal;font-size:3.21254px;font-family:Arial;-inkscape-font-specification:'Arial, Normal';font-variant-ligatures:normal;font-variant-caps:normal;font-variant-numeric:normal;font-variant-east-asian:normal;fill:#ffffff;stroke-width:0.24094"
           id="path1549" />
        <path
           d="m 35.466219,18.510409 0.304313,0.07686 q -0.09569,0.374901 -0.345097,0.572548 -0.247843,0.196077 -0.607058,0.196077 -0.371763,0 -0.605488,-0.150587 -0.232156,-0.152157 -0.354509,-0.439215 -0.120784,-0.287058 -0.120784,-0.616469 0,-0.359214 0.13647,-0.62588 0.138039,-0.268235 0.390588,-0.406274 0.254116,-0.139607 0.558429,-0.139607 0.345097,0 0.580391,0.175686 0.235293,0.175686 0.327842,0.494116 l -0.299607,0.07059 q -0.08,-0.25098 -0.232156,-0.365489 -0.152157,-0.11451 -0.382744,-0.11451 -0.265097,0 -0.44392,0.127059 -0.177255,0.127058 -0.249412,0.34196 -0.07216,0.213332 -0.07216,0.440783 0,0.293332 0.0847,0.512939 0.08628,0.218039 0.266666,0.326274 0.180392,0.108235 0.390587,0.108235 0.255686,0 0.43294,-0.14745 0.177255,-0.147451 0.24,-0.437646 z"
           style="font-style:normal;font-variant:normal;font-weight:normal;font-stretch:normal;font-size:3.21254px;font-family:Arial;-inkscape-font-specification:'Arial, Normal';font-variant-ligatures:normal;font-variant-caps:normal;font-variant-numeric:normal;font-variant-east-asian:normal;fill:#ffffff;stroke-width:0.24094"
           id="path1551" />
        <path
           d="m 36.730529,19.316681 v -2.02823 H 35.972885 V 17.01708 h 1.822739 v 0.271371 h -0.760782 v 2.02823 z"
           style="font-style:normal;font-variant:normal;font-weight:normal;font-stretch:normal;font-size:3.21254px;font-family:Arial;-inkscape-font-specification:'Arial, Normal';font-variant-ligatures:normal;font-variant-caps:normal;font-variant-numeric:normal;font-variant-east-asian:normal;fill:#ffffff;stroke-width:0.24094"
           id="path1553" />
        <path
           d="M 38.932875,19.316681 V 17.01708 h 0.458038 l 0.544312,1.62823 q 0.07529,0.227451 0.109804,0.340391 0.03922,-0.125489 0.122353,-0.368626 l 0.550586,-1.599995 h 0.409411 v 2.299601 H 40.834046 V 17.39198 l -0.668233,1.924701 h -0.274509 l -0.665096,-1.957642 v 1.957642 z"
           style="font-style:normal;font-variant:normal;font-weight:normal;font-stretch:normal;font-size:3.21254px;font-family:Arial;-inkscape-font-specification:'Arial, Normal';font-variant-ligatures:normal;font-variant-caps:normal;font-variant-numeric:normal;font-variant-east-asian:normal;fill:#ffffff;stroke-width:0.24094"
           id="path1555" />
        <path
           d="m 41.36581,19.316681 0.883135,-2.299601 h 0.327842 l 0.941174,2.299601 H 43.171295 L 42.90306,18.620212 h -0.961565 l -0.252549,0.696469 z m 0.663527,-0.944311 h 0.779606 l -0.239999,-0.636861 q -0.109804,-0.290195 -0.163137,-0.476861 -0.04392,0.221175 -0.123921,0.439214 z"
           style="font-style:normal;font-variant:normal;font-weight:normal;font-stretch:normal;font-size:3.21254px;font-family:Arial;-inkscape-font-specification:'Arial, Normal';font-variant-ligatures:normal;font-variant-caps:normal;font-variant-numeric:normal;font-variant-east-asian:normal;fill:#ffffff;stroke-width:0.24094"
           id="path1557" />
        <path
           d="M 43.757959,19.316681 V 17.01708 h 0.312156 l 1.20784,1.805485 V 17.01708 h 0.291764 v 2.299601 h -0.312156 l -1.20784,-1.807054 v 1.807054 z"
           style="font-style:normal;font-variant:normal;font-weight:normal;font-stretch:normal;font-size:3.21254px;font-family:Arial;-inkscape-font-specification:'Arial, Normal';font-variant-ligatures:normal;font-variant-caps:normal;font-variant-numeric:normal;font-variant-east-asian:normal;fill:#ffffff;stroke-width:0.24094"
           id="path1559" />
        <path
           d="m 45.828542,19.316681 0.883135,-2.299601 h 0.327842 l 0.941174,2.299601 h -0.346666 l -0.268234,-0.696469 h -0.961566 l -0.252548,0.696469 z M 46.49207,18.37237 h 0.779605 l -0.239999,-0.636861 q -0.109803,-0.290195 -0.163137,-0.476861 -0.04392,0.221175 -0.123921,0.439214 z"
           style="font-style:normal;font-variant:normal;font-weight:normal;font-stretch:normal;font-size:3.21254px;font-family:Arial;-inkscape-font-specification:'Arial, Normal';font-variant-ligatures:normal;font-variant-caps:normal;font-variant-numeric:normal;font-variant-east-asian:normal;fill:#ffffff;stroke-width:0.24094"
           id="path1561" />
        <path
           d="M 49.299906,18.414723 V 18.14492 l 0.974115,-0.0016 v 0.853331 q -0.224313,0.178823 -0.462744,0.269803 -0.23843,0.08941 -0.48941,0.08941 -0.338823,0 -0.616469,-0.144313 -0.276078,-0.145882 -0.417254,-0.420391 -0.141176,-0.274509 -0.141176,-0.613331 0,-0.335686 0.139608,-0.625881 0.141176,-0.291764 0.404704,-0.43294 0.263529,-0.141176 0.607058,-0.141176 0.249411,0 0.450194,0.08157 0.202353,0.08 0.316862,0.224313 0.11451,0.144314 0.174117,0.37647 l -0.274509,0.07529 q -0.05176,-0.175686 -0.128627,-0.276078 -0.07686,-0.100392 -0.219607,-0.159999 -0.142745,-0.06118 -0.316862,-0.06118 -0.208627,0 -0.360783,0.06431 -0.152157,0.06275 -0.246274,0.166274 -0.09255,0.103529 -0.144313,0.22745 -0.08784,0.213333 -0.08784,0.462744 0,0.30745 0.105098,0.514508 0.106666,0.207059 0.309018,0.307451 0.202353,0.100391 0.429803,0.100391 0.197647,0 0.385881,-0.07529 0.188235,-0.07686 0.28549,-0.163137 v -0.428234 z"
           style="font-style:normal;font-variant:normal;font-weight:normal;font-stretch:normal;font-size:3.21254px;font-family:Arial;-inkscape-font-specification:'Arial, Normal';font-variant-ligatures:normal;font-variant-caps:normal;font-variant-numeric:normal;font-variant-east-asian:normal;fill:#ffffff;stroke-width:0.24094"
           id="path1563" />
        <path
           d="M 50.728921,19.316681 V 17.01708 h 1.66274 v 0.271371 h -1.358427 v 0.704312 h 1.272153 v 0.269803 h -1.272153 v 0.782743 h 1.41176 v 0.271372 z"
           style="font-style:normal;font-variant:normal;font-weight:normal;font-stretch:normal;font-size:3.21254px;font-family:Arial;-inkscape-font-specification:'Arial, Normal';font-variant-ligatures:normal;font-variant-caps:normal;font-variant-numeric:normal;font-variant-east-asian:normal;fill:#ffffff;stroke-width:0.24094"
           id="path1565" />
        <path
           d="M 52.855973,19.316681 V 17.01708 h 0.458038 l 0.544312,1.62823 q 0.07529,0.227451 0.109804,0.340391 0.03921,-0.125489 0.122352,-0.368626 l 0.550587,-1.599995 h 0.409411 v 2.299601 H 54.757144 V 17.39198 l -0.668233,1.924701 h -0.274509 l -0.665097,-1.957642 v 1.957642 z"
           style="font-style:normal;font-variant:normal;font-weight:normal;font-stretch:normal;font-size:3.21254px;font-family:Arial;-inkscape-font-specification:'Arial, Normal';font-variant-ligatures:normal;font-variant-caps:normal;font-variant-numeric:normal;font-variant-east-asian:normal;fill:#ffffff;stroke-width:0.24094"
           id="path1567" />
        <path
           d="M 55.54773,19.316681 V 17.01708 h 1.662741 v 0.271371 h -1.358428 v 0.704312 h 1.272153 v 0.269803 h -1.272153 v 0.782743 h 1.411761 v 0.271372 z"
           style="font-style:normal;font-variant:normal;font-weight:normal;font-stretch:normal;font-size:3.21254px;font-family:Arial;-inkscape-font-specification:'Arial, Normal';font-variant-ligatures:normal;font-variant-caps:normal;font-variant-numeric:normal;font-variant-east-asian:normal;fill:#ffffff;stroke-width:0.24094"
           id="path1569" />
        <path
           d="M 57.681057,19.316681 V 17.01708 h 0.312156 l 1.20784,1.805485 V 17.01708 h 0.291764 v 2.299601 h -0.312156 l -1.20784,-1.807054 v 1.807054 z"
           style="font-style:normal;font-variant:normal;font-weight:normal;font-stretch:normal;font-size:3.21254px;font-family:Arial;-inkscape-font-specification:'Arial, Normal';font-variant-ligatures:normal;font-variant-caps:normal;font-variant-numeric:normal;font-variant-east-asian:normal;fill:#ffffff;stroke-width:0.24094"
           id="path1571" />
        <path
           d="m 60.589286,19.316681 v -2.02823 H 59.831642 V 17.01708 h 1.822739 v 0.271371 h -0.760782 v 2.02823 z"
           style="font-style:normal;font-variant:normal;font-weight:normal;font-stretch:normal;font-size:3.21254px;font-family:Arial;-inkscape-font-specification:'Arial, Normal';font-variant-ligatures:normal;font-variant-caps:normal;font-variant-numeric:normal;font-variant-east-asian:normal;fill:#ffffff;stroke-width:0.24094"
           id="path1573" />
      </g>
    </g>
  </g>
</svg>
