<?xml version="1.0" encoding="utf-8"?>
<!-- Generator: Adobe Illustrator 24.2.3, SVG Export Plug-In . SVG Version: 6.00 Build 0)  -->
<svg version="1.1" id="Capa_1" xmlns="http://www.w3.org/2000/svg" xmlns:xlink="http://www.w3.org/1999/xlink" x="0px" y="0px"
	 viewBox="0 0 15 22.1" style="enable-background:new 0 0 15 22.1;" xml:space="preserve">
<style type="text/css">
	.st0{fill:#A4A4A4;}
</style>
<g>
	<g>
		<path class="st0" d="M7.5,0C3.4,0,0,3.4,0,7.5c0,1.7,1,4.2,3.1,8C4.5,18,5.9,20.2,6,20.3l1,1.6c0.1,0.2,0.3,0.3,0.5,0.3
			S7.9,22,8,21.8l1-1.6c0.1-0.1,1.5-2.2,2.9-4.8c2.1-3.8,3.1-6.3,3.1-8C15,3.4,11.6,0,7.5,0z M10.9,14.9c-1.4,2.6-2.8,4.7-2.9,4.8
			l-0.6,0.9l-0.6-0.9c-0.1-0.1-1.5-2.2-2.9-4.8c-1.9-3.5-2.9-6-2.9-7.4C1.1,4,4,1.1,7.5,1.1s6.4,2.9,6.4,6.4
			C13.9,8.9,12.9,11.4,10.9,14.9z"/>
		<path class="st0" d="M7.5,3.3c-2.3,0-4.2,1.9-4.2,4.2s1.9,4.2,4.2,4.2s4.2-1.9,4.2-4.2S9.8,3.3,7.5,3.3z M7.5,10.5
			c-1.7,0-3-1.4-3-3s1.4-3,3-3c1.7,0,3,1.4,3,3S9.2,10.5,7.5,10.5z"/>
	</g>
</g>
</svg>
