<?xml version="1.0" encoding="utf-8"?>
<!-- Generator: Adobe Illustrator 24.2.3, SVG Export Plug-In . SVG Version: 6.00 Build 0)  -->
<svg version="1.1" id="Layer_1" xmlns="http://www.w3.org/2000/svg" xmlns:xlink="http://www.w3.org/1999/xlink" x="0px" y="0px"
	 viewBox="0 0 21 13.9" style="enable-background:new 0 0 21 13.9;" xml:space="preserve">
<style type="text/css">
	.st0{fill:none;stroke:#A7A7A7;stroke-width:1.4465;stroke-miterlimit:10;}
</style>
<path class="st0" d="M2.8,9.4v2.5c0,0.7,0.6,1.3,1.3,1.3H17c0.7,0,1.3-0.6,1.3-1.3V9.4 M20.1,5.4L20.1,5.4v1.5c0,0.5-0.5,1-1.1,1
	h-2.8c-0.6,0-1.1-0.4-1.1-1V6.6c0,0,0.2-2.1,0.5-2.3c-1.2-0.9-3.2-1.6-5.1-1.6c-2,0-3.9,0.6-5.1,1.5c0.3,0.2,0.5,2.3,0.5,2.3v0.3
	c0,0.5-0.5,1-1.1,1H2c-0.6,0-1.1-0.4-1.1-1V5.4l0,0l0,0l0,0c0-0.1,0-0.2,0-0.2c0.5-2.5,5.3-4.4,9.6-4.4s9.1,2,9.6,4.4
	C20.1,5.3,20.1,5.3,20.1,5.4L20.1,5.4L20.1,5.4z"/>
</svg>
