<?xml version="1.0" encoding="UTF-8" standalone="no"?>
<!-- Created with Inkscape (http://www.inkscape.org/) -->

<svg
   xmlns:dc="http://purl.org/dc/elements/1.1/"
   xmlns:cc="http://creativecommons.org/ns#"
   xmlns:rdf="http://www.w3.org/1999/02/22-rdf-syntax-ns#"
   xmlns:svg="http://www.w3.org/2000/svg"
   xmlns="http://www.w3.org/2000/svg"
   xmlns:sodipodi="http://sodipodi.sourceforge.net/DTD/sodipodi-0.dtd"
   xmlns:inkscape="http://www.inkscape.org/namespaces/inkscape"
   width="222"
   height="263"
   viewBox="0 0 58.7375 69.585417"
   version="1.1"
   id="svg8"
   inkscape:version="0.92.1 r15371">
  <defs
     id="defs2" />
  <sodipodi:namedview
     id="base"
     pagecolor="#ffffff"
     bordercolor="#666666"
     borderopacity="1.0"
     inkscape:pageopacity="0.0"
     inkscape:pageshadow="2"
     inkscape:zoom="2.5463172"
     inkscape:cx="111"
     inkscape:cy="131.5"
     inkscape:document-units="px"
     inkscape:current-layer="layer1"
     showgrid="false"
     units="px"
     inkscape:window-width="1600"
     inkscape:window-height="837"
     inkscape:window-x="-8"
     inkscape:window-y="-8"
     inkscape:window-maximized="1" />
  <metadata
     id="metadata5">
    <rdf:RDF>
      <cc:Work
         rdf:about="">
        <dc:format>image/svg+xml</dc:format>
        <dc:type
           rdf:resource="http://purl.org/dc/dcmitype/StillImage" />
        <dc:title></dc:title>
      </cc:Work>
    </rdf:RDF>
  </metadata>
  <g
     inkscape:label="Layer 1"
     inkscape:groupmode="layer"
     id="layer1"
     transform="translate(0,-227.41458)">
    <g
       id="g3798"
       transform="translate(-74.952669,129.24896)">
      <path
         inkscape:connector-curvature="0"
         style="fill:#209a4b;fill-opacity:1;fill-rule:nonzero;stroke:none;stroke-width:0.26458332"
         d="m 83.331148,152.31784 c -0.44097,1.14653 -0.44097,1.14653 -0.44097,1.14653 -0.0882,0 -0.0882,0 -0.0882,0 0,-0.0882 0,-0.17639 0,-0.26459 0,-0.0882 0,-0.17638 -0.0882,-0.17638 -0.0882,-0.0882 -0.17639,-0.0882 -0.35278,-0.0882 -2.55764,0 -2.55764,0 -2.55764,0 0,8.46666 0,8.46666 0,8.46666 0,0.35278 0,0.52917 0.0882,0.70556 0,0.0882 0.0882,0.17639 0.17639,0.17639 0.0882,0.0882 0.26458,0.0882 0.44097,0.0882 0,0.0882 0,0.0882 0,0.0882 -2.64583,0 -2.64583,0 -2.64583,0 0,-0.0882 0,-0.0882 0,-0.0882 0.35277,0 0.52916,-0.0882 0.61736,-0.17639 0.0882,-0.0882 0.17639,-0.35278 0.17639,-0.70556 0,-8.55486 0,-8.55486 0,-8.55486 -2.46945,0 -2.46945,0 -2.46945,0 -0.26458,0 -0.44097,0 -0.52916,0.0882 -0.0882,0 -0.0882,0.0882 -0.0882,0.17639 0,0.0882 0,0.17639 0.0882,0.26458 -0.17639,0 -0.17639,0 -0.17639,0 -0.44098,-1.14653 -0.44098,-1.14653 -0.44098,-1.14653 0.0882,0 0.0882,0 0.0882,0 0.0882,0.0882 0.17639,0.26459 0.26458,0.26459 0.0882,0 0.26459,0 0.52917,0 6.52639,0 6.52639,0 6.52639,0 0.26458,0 0.44097,0 0.52916,0 0.0882,0 0.17639,-0.17639 0.26459,-0.26459 z"
         id="path3683" />
      <path
         inkscape:connector-curvature="0"
         style="fill:#209a4b;fill-opacity:1;fill-rule:nonzero;stroke:none;stroke-width:0.26458332"
         d="m 85.183228,157.6977 c 2.64584,0 2.64584,0 2.64584,0 -1.32292,-3.35139 -1.32292,-3.35139 -1.32292,-3.35139 z m 2.73403,0.26458 c -2.91041,0 -2.91041,0 -2.91041,0 -1.41112,3.70417 -1.41112,3.70417 -1.41112,3.70417 -0.17638,0.26458 -0.17638,0.44097 -0.17638,0.52917 0,0.0882 0.0882,0.17639 0.35277,0.17639 0,0.0882 0,0.0882 0,0.0882 -1.4993,0 -1.4993,0 -1.4993,0 0,-0.0882 0,-0.0882 0,-0.0882 0.17639,0 0.35278,-0.0882 0.52916,-0.17639 0.0882,-0.0882 0.26459,-0.35278 0.44098,-0.70556 3.52777,-8.99583 3.52777,-8.99583 3.52777,-8.99583 0.17639,0 0.17639,0 0.17639,0 3.52778,8.64305 3.52778,8.64305 3.52778,8.64305 0,0.0882 0.0882,0.26459 0.26458,0.70556 0.17639,0.35278 0.44098,0.52917 0.79375,0.52917 0,0.0882 0,0.0882 0,0.0882 -2.29305,0 -2.29305,0 -2.29305,0 0,-0.0882 0,-0.0882 0,-0.0882 0.26458,0 0.35278,-0.0882 0.35278,-0.26459 0,-0.0882 -0.0882,-0.26458 -0.17639,-0.52916 0,0 0,0 -0.0882,-0.0882 0,0 0,-0.0882 0,-0.0882 z"
         id="path3685" />
      <path
         inkscape:connector-curvature="0"
         style="fill:#209a4b;fill-opacity:1;fill-rule:nonzero;stroke:none;stroke-width:0.26458332"
         d="m 100.26448,152.58242 c 1.85209,0 1.85209,0 1.85209,0 0,0.17639 0,0.17639 0,0.17639 -0.26459,0 -0.44098,0 -0.61736,0.17639 -0.0882,0.0882 -0.0882,0.35278 -0.0882,0.70556 0,8.99583 0,8.99583 0,8.99583 -7.937502,-8.37847 -7.937502,-8.37847 -7.937502,-8.37847 0,7.23194 0,7.23194 0,7.23194 0,0.26459 0.0882,0.44097 0.0882,0.52917 0.0882,0.0882 0.0882,0.17639 0.17639,0.26458 0.0882,0 0.26458,0.0882 0.52916,0.0882 0,0.0882 0,0.0882 0,0.0882 -1.94027,0 -1.94027,0 -1.94027,0 0,-0.0882 0,-0.0882 0,-0.0882 0.35277,0 0.52916,-0.0882 0.61736,-0.17639 0.0882,-0.0882 0.17639,-0.44097 0.17639,-0.88194 0,-6.61459 0,-6.61459 0,-6.61459 0,-0.61736 -0.0882,-1.05833 -0.26459,-1.4993 -0.17639,-0.35278 -0.52916,-0.52917 -1.14652,-0.44097 0,-0.17639 0,-0.17639 0,-0.17639 1.85208,0 1.85208,0 1.85208,0 7.408332,7.9375 7.408332,7.9375 7.408332,7.9375 0,-6.96736 0,-6.96736 0,-6.96736 0,-0.35278 -0.0882,-0.61736 -0.17639,-0.70556 -0.17639,-0.0882 -0.35277,-0.0882 -0.52916,-0.0882 z"
         id="path3687" />
      <path
         inkscape:connector-curvature="0"
         style="fill:#209a4b;fill-opacity:1;fill-rule:nonzero;stroke:none;stroke-width:0.26458332"
         d="m 110.93601,152.31784 c -0.52917,1.14653 -0.52917,1.14653 -0.52917,1.14653 -0.0882,0 -0.0882,0 -0.0882,0 0,-0.0882 0,-0.17639 0,-0.26459 0,-0.0882 0,-0.17638 -0.0882,-0.17638 -0.0882,-0.0882 -0.17639,-0.0882 -0.35277,-0.0882 -2.55764,0 -2.55764,0 -2.55764,0 0,8.46666 0,8.46666 0,8.46666 0,0.35278 0,0.52917 0.0882,0.70556 0.0882,0.0882 0.0882,0.17639 0.26458,0.17639 0.0882,0.0882 0.17639,0.0882 0.44097,0.0882 0,0.0882 0,0.0882 0,0.0882 -2.64583,0 -2.64583,0 -2.64583,0 0,-0.0882 0,-0.0882 0,-0.0882 0.26458,0 0.52917,-0.0882 0.61736,-0.17639 0.0882,-0.0882 0.0882,-0.35278 0.0882,-0.70556 0,-8.55486 0,-8.55486 0,-8.55486 -2.46944,0 -2.46944,0 -2.46944,0 -0.26459,0 -0.35278,0 -0.44098,0.0882 -0.0882,0 -0.17638,0.0882 -0.17638,0.17639 0,0.0882 0.0882,0.17639 0.0882,0.26458 -0.0882,0 -0.0882,0 -0.0882,0 -0.44098,-1.14653 -0.44098,-1.14653 -0.44098,-1.14653 0.0882,0 0.0882,0 0.0882,0 0.0882,0.0882 0.0882,0.26459 0.17639,0.26459 0.0882,0 0.26459,0 0.52917,0 6.52639,0 6.52639,0 6.52639,0 0.26458,0 0.44097,0 0.61736,0 0.0882,0 0.17639,-0.17639 0.17639,-0.26459 z"
         id="path3689" />
      <path
         inkscape:connector-curvature="0"
         style="fill:#209a4b;fill-opacity:1;fill-rule:nonzero;stroke:none;stroke-width:0.26458332"
         d="m 120.54921,162.4602 c -1.85209,0 -1.85209,0 -1.85209,0 0,-1.4993 0,-1.4993 0,-1.4993 -0.88194,1.05833 -2.02847,1.5875 -3.35139,1.5875 -0.97014,0 -1.76389,-0.26459 -2.38125,-0.79375 -0.52916,-0.61737 -0.79375,-1.32292 -0.79375,-2.29306 0,-5.90903 0,-5.90903 0,-5.90903 0,-0.35278 -0.0882,-0.61736 -0.17639,-0.70555 -0.0882,-0.0882 -0.26458,-0.0882 -0.52916,-0.0882 0,-0.17639 0,-0.17639 0,-0.17639 2.55764,0 2.55764,0 2.55764,0 0,0.17639 0,0.17639 0,0.17639 -0.26459,0 -0.44098,0 -0.52917,0.0882 -0.17639,0.0882 -0.17639,0.26458 -0.17639,0.61736 0,5.37986 0,5.37986 0,5.37986 0,1.14653 0.26458,1.94028 0.79375,2.46944 0.52917,0.44098 1.14653,0.70556 1.76389,0.70556 1.05833,0 2.02847,-0.44097 2.82222,-1.41111 0,-6.70278 0,-6.70278 0,-6.70278 0,-0.52917 0,-0.88194 -0.0882,-1.05833 -0.17638,-0.0882 -0.26458,-0.0882 -0.52916,-0.0882 -0.0882,0 -0.0882,0 -0.0882,0 0,-0.17639 0,-0.17639 0,-0.17639 2.55764,0 2.55764,0 2.55764,0 0,0.17639 0,0.17639 0,0.17639 -0.26459,0 -0.44098,0 -0.52917,0.0882 -0.0882,0.0882 -0.17639,0.26458 -0.17639,0.52916 0,8.0257 0,8.0257 0,8.0257 0,0.35278 0,0.52916 0.0882,0.61736 0,0.0882 0.0882,0.17639 0.17639,0.26458 0.0882,0.0882 0.26458,0.0882 0.44097,0.0882 z"
         id="path3691" />
      <path
         inkscape:connector-curvature="0"
         style="fill:#209a4b;fill-opacity:1;fill-rule:nonzero;stroke:none;stroke-width:0.26458332"
         d="m 130.69157,152.58242 c 1.5875,0 1.5875,0 1.5875,0 0,0.17639 0,0.17639 0,0.17639 -0.52917,0 -0.79375,0.26459 -0.79375,0.79375 0,0.0882 0,0.26459 0,0.44097 1.05833,7.49653 1.05833,7.49653 1.05833,7.49653 0.0882,0.35278 0.0882,0.61736 0.17639,0.70556 0.0882,0.0882 0.26458,0.17639 0.52917,0.17639 0,0.0882 0,0.0882 0,0.0882 -2.20487,0 -2.20487,0 -2.20487,0 0,-0.0882 0,-0.0882 0,-0.0882 0.26459,0 0.44098,-0.0882 0.44098,-0.44098 0,-0.0882 0,-0.17638 -0.0882,-0.35277 -0.97014,-7.23195 -0.97014,-7.23195 -0.97014,-7.23195 -3.52778,8.11389 -3.52778,8.11389 -3.52778,8.11389 -0.0882,0 -0.0882,0 -0.0882,0 -3.52778,-8.11389 -3.52778,-8.11389 -3.52778,-8.11389 -1.05833,7.23195 -1.05833,7.23195 -1.05833,7.23195 0,0.17639 0,0.26458 0,0.44097 0,0.26458 0.17639,0.35278 0.44097,0.35278 0,0.0882 0,0.0882 0,0.0882 -1.4993,0 -1.4993,0 -1.4993,0 0,-0.0882 0,-0.0882 0,-0.0882 0.26458,0 0.35277,0 0.44097,-0.0882 0.0882,-0.0882 0.0882,-0.17639 0.17639,-0.26459 0,-0.0882 0.0882,-0.26458 0.0882,-0.44097 1.05833,-7.9375 1.05833,-7.9375 1.05833,-7.9375 -0.17639,-0.44097 -0.35278,-0.70555 -0.52917,-0.79375 -0.17639,-0.0882 -0.35278,-0.0882 -0.52916,-0.0882 0,-0.17639 0,-0.17639 0,-0.17639 1.85208,0 1.85208,0 1.85208,0 3.52778,8.11389 3.52778,8.11389 3.52778,8.11389 z"
         id="path3693" />
      <path
         inkscape:connector-curvature="0"
         style="fill:#1d4757;fill-opacity:1;fill-rule:nonzero;stroke:none;stroke-width:0.26458332"
         d="m 79.626978,165.45881 c 0,-0.17639 -0.0882,-0.35278 -0.17638,-0.44097 -0.0882,-0.0882 -0.26459,-0.17639 -0.44098,-0.17639 -0.70555,0 -0.70555,0 -0.70555,0 0,1.14653 0,1.14653 0,1.14653 0.70555,0 0.70555,0 0.70555,0 0.17639,0 0.35278,0 0.44098,-0.0882 0.0882,-0.0882 0.17638,-0.26458 0.17638,-0.44097 m 0.35278,0 c 0,0.26458 0,0.52916 -0.17639,0.70555 -0.0882,0.0882 -0.26458,0.0882 -0.35277,0.17639 -0.0882,0 -0.26459,0 -0.44098,0 -0.70555,0 -0.70555,0 -0.70555,0 0,1.23472 0,1.23472 0,1.23472 -0.44097,0 -0.44097,0 -0.44097,0 0,-3.0868 0,-3.0868 0,-3.0868 1.14652,0 1.14652,0 1.14652,0 0.17639,0 0.35278,0.0882 0.44098,0.0882 0.17638,0.0882 0.26458,0.0882 0.35277,0.17638 0.0882,0.0882 0.0882,0.17639 0.17639,0.35278 0,0.0882 0,0.17639 0,0.35278 z"
         id="path3695" />
      <path
         inkscape:connector-curvature="0"
         style="fill:#1d4757;fill-opacity:1;fill-rule:nonzero;stroke:none;stroke-width:0.26458332"
         d="m 82.625598,165.37062 c 0,-0.17639 -0.0882,-0.26459 -0.17639,-0.35278 -0.0882,-0.0882 -0.26459,-0.17639 -0.44098,-0.17639 -0.79375,0 -0.79375,0 -0.79375,0 0,1.05833 0,1.05833 0,1.05833 0.79375,0 0.79375,0 0.79375,0 0.0882,0 0.17639,0 0.26459,0 0.0882,0 0.0882,0 0.17639,-0.0882 0.0882,0 0.0882,-0.0882 0.17639,-0.17638 0,-0.0882 0,-0.17639 0,-0.26459 m 0,2.20486 c -0.61737,-1.32291 -0.61737,-1.32291 -0.61737,-1.32291 -0.79375,0 -0.79375,0 -0.79375,0 0,1.32292 0,1.32292 0,1.32292 -0.35277,0 -0.35277,0 -0.35277,0 0,-3.08681 0,-3.08681 0,-3.08681 1.14652,0 1.14652,0 1.14652,0 0.17639,0 0.35278,0.0882 0.44098,0.0882 0.17639,0.0882 0.26458,0.0882 0.35277,0.17639 0.0882,0.0882 0.0882,0.17639 0.17639,0.26458 0,0.17639 0.0882,0.26459 0.0882,0.35278 0,0.17639 -0.0882,0.26459 -0.0882,0.35278 -0.0882,0.0882 -0.0882,0.17639 -0.17639,0.26458 -0.0882,0.0882 -0.0882,0.0882 -0.17638,0.17639 -0.0882,0 -0.0882,0 -0.17639,0.0882 0.61736,1.32292 0.61736,1.32292 0.61736,1.32292 z"
         id="path3697" />
      <path
         inkscape:connector-curvature="0"
         style="fill:#1d4757;fill-opacity:1;fill-rule:nonzero;stroke:none;stroke-width:0.26458332"
         d="m 85.712398,166.07617 c 0,-0.0882 0,-0.17639 0,-0.26458 0,-0.0882 0,-0.17639 0,-0.26458 0,-0.0882 -0.0882,-0.17639 -0.0882,-0.26459 -0.0882,-0.0882 -0.0882,-0.17639 -0.17639,-0.26458 -0.0882,0 -0.17639,-0.0882 -0.26458,-0.17639 -0.0882,0 -0.17639,0 -0.26458,0 -0.0882,0 -0.17639,0 -0.26459,0 -0.17638,0.0882 -0.26458,0.17639 -0.26458,0.17639 -0.0882,0.0882 -0.17638,0.17639 -0.17638,0.26458 0,0.0882 -0.0882,0.17639 -0.0882,0.26459 0,0.0882 0,0.17639 0,0.26458 0,0.0882 0,0.17639 0,0.26458 0,0 0,0.0882 0,0.17639 0,0.0882 0,0.17639 0,0.26459 0,0.0882 0.0882,0.17638 0.0882,0.26458 0,0.0882 0.0882,0.17639 0.17638,0.26458 0,0.0882 0.0882,0.0882 0.26459,0.17639 0.0882,0 0.17639,0 0.26458,0 0.0882,0 0.17639,0 0.26458,0 0.0882,-0.0882 0.17639,-0.0882 0.26459,-0.17639 0.0882,-0.0882 0.0882,-0.17639 0.17639,-0.26458 0,-0.0882 0.0882,-0.17639 0.0882,-0.26458 0,-0.0882 0,-0.17639 0,-0.26459 0,-0.0882 0,-0.17639 0,-0.17639 m 0.44097,0 c 0,0.0882 0,0.17639 -0.0882,0.35278 0,0.0882 0,0.17639 0,0.26458 0,0.17639 -0.0882,0.26459 -0.0882,0.35278 -0.0882,0.0882 -0.17639,0.17639 -0.26458,0.26459 -0.0882,0.0882 -0.17639,0.17638 -0.35278,0.26458 -0.17639,0 -0.26459,0.0882 -0.44097,0.0882 -0.17639,0 -0.26459,-0.0882 -0.44098,-0.0882 -0.17639,-0.0882 -0.26458,-0.17639 -0.35277,-0.26458 -0.0882,-0.0882 -0.17639,-0.17639 -0.26459,-0.26459 0,-0.0882 -0.0882,-0.17639 -0.0882,-0.35278 0,-0.0882 -0.0882,-0.17638 -0.0882,-0.26458 0,-0.17639 0,-0.26458 0,-0.35278 0,-0.17639 0,-0.26458 0,-0.35277 0,-0.17639 0.0882,-0.26459 0.0882,-0.35278 0,-0.0882 0.0882,-0.26459 0.0882,-0.35278 0.0882,-0.0882 0.17639,-0.17639 0.26459,-0.26458 0.0882,-0.0882 0.17638,-0.17639 0.35277,-0.17639 0.17639,-0.0882 0.26459,-0.0882 0.44098,-0.0882 0.17638,0 0.26458,0 0.44097,0.0882 0.17639,0 0.26458,0.0882 0.35278,0.17639 0.0882,0.0882 0.17638,0.17639 0.26458,0.26458 0,0.0882 0.0882,0.26458 0.0882,0.35278 0,0.0882 0,0.17639 0,0.35278 0.0882,0.0882 0.0882,0.17638 0.0882,0.35277 z"
         id="path3699" />
      <path
         inkscape:connector-curvature="0"
         style="fill:#1d4757;fill-opacity:1;fill-rule:nonzero;stroke:none;stroke-width:0.26458332"
         d="m 88.799208,165.45881 c 0,-0.17639 -0.0882,-0.35278 -0.17639,-0.44097 -0.17639,-0.0882 -0.26459,-0.17639 -0.44097,-0.17639 -0.79375,0 -0.79375,0 -0.79375,0 0,1.14653 0,1.14653 0,1.14653 0.79375,0 0.79375,0 0.79375,0 0.17638,0 0.35277,0 0.44097,-0.0882 0.0882,-0.0882 0.17639,-0.26458 0.17639,-0.44097 m 0.35277,0 c 0,0.26458 -0.0882,0.52916 -0.26458,0.70555 -0.0882,0.0882 -0.17639,0.0882 -0.26458,0.17639 -0.17639,0 -0.26459,0 -0.44097,0 -0.79375,0 -0.79375,0 -0.79375,0 0,1.23472 0,1.23472 0,1.23472 -0.35278,0 -0.35278,0 -0.35278,0 0,-3.0868 0,-3.0868 0,-3.0868 1.14653,0 1.14653,0 1.14653,0 0.17638,0 0.26458,0.0882 0.44097,0.0882 0.0882,0.0882 0.17639,0.0882 0.26458,0.17638 0.0882,0.0882 0.17639,0.17639 0.17639,0.35278 0.0882,0.0882 0.0882,0.17639 0.0882,0.35278 z"
         id="path3701" />
      <path
         inkscape:connector-curvature="0"
         style="fill:#1d4757;fill-opacity:1;fill-rule:nonzero;stroke:none;stroke-width:0.26458332"
         d="m 89.945728,167.57548 v -3.08681 h 2.02848 v 0.35278 h -1.6757 v 0.97014 h 1.49931 v 0.35278 h -1.49931 v 1.05833 h 1.6757 v 0.35278 z"
         id="path3703" />
      <path
         inkscape:connector-curvature="0"
         style="fill:#1d4757;fill-opacity:1;fill-rule:nonzero;stroke:none;stroke-width:0.26458332"
         d="m 94.708228,165.37062 c 0,-0.17639 -0.0882,-0.26459 -0.17638,-0.35278 -0.0882,-0.0882 -0.26459,-0.17639 -0.44098,-0.17639 -0.79375,0 -0.79375,0 -0.79375,0 0,1.05833 0,1.05833 0,1.05833 0.79375,0 0.79375,0 0.79375,0 0.0882,0 0.17639,0 0.26459,0 0,0 0.0882,0 0.17639,-0.0882 0,0 0.0882,-0.0882 0.0882,-0.17638 0.0882,-0.0882 0.0882,-0.17639 0.0882,-0.26459 m 0,2.20486 c -0.61737,-1.32291 -0.61737,-1.32291 -0.61737,-1.32291 -0.79375,0 -0.79375,0 -0.79375,0 0,1.32291 0,1.32291 0,1.32291 -0.44097,0 -0.44097,0 -0.44097,0 0,-3.0868 0,-3.0868 0,-3.0868 1.23472,0 1.23472,0 1.23472,0 0.17639,0 0.35278,0.0882 0.44098,0.0882 0.0882,0.0882 0.26458,0.0882 0.35277,0.17639 0,0.0882 0.0882,0.17639 0.17639,0.26458 0,0.17639 0,0.26458 0,0.35278 0,0.17639 0,0.26458 0,0.35278 -0.0882,0.0882 -0.17639,0.17638 -0.17639,0.26458 -0.0882,0.0882 -0.0882,0.0882 -0.17638,0.17639 -0.0882,0 -0.17639,0 -0.17639,0.0882 0.52917,1.32292 0.52917,1.32292 0.52917,1.32292 z"
         id="path3705" />
      <path
         inkscape:connector-curvature="0"
         style="fill:#1d4757;fill-opacity:1;fill-rule:nonzero;stroke:none;stroke-width:0.26458332"
         d="m 96.824898,164.84145 v 2.73403 h -0.35278 v -2.73403 h -0.97014 v -0.35278 h 2.20487 v 0.35278 z"
         id="path3707" />
      <path
         inkscape:connector-curvature="0"
         style="fill:#1d4757;fill-opacity:1;fill-rule:nonzero;stroke:none;stroke-width:0.26458332"
         d="m 99.470728,166.34076 v 1.23472 h -0.44097 v -1.23472 l -0.97014,-1.85209 h 0.44098 l 0.79375,1.49931 0.793752,-1.49931 h 0.35277 z"
         id="path3709" />
      <path
         inkscape:connector-curvature="0"
         style="fill:#1d4757;fill-opacity:1;fill-rule:nonzero;stroke:none;stroke-width:0.26458332"
         d="m 104.93879,166.60534 c 0,0.0882 -0.0882,0.26458 -0.0882,0.35278 -0.0882,0.17639 -0.17639,0.26458 -0.26458,0.35278 -0.0882,0.0882 -0.17639,0.17638 -0.35278,0.17638 -0.0882,0.0882 -0.26458,0.17639 -0.44097,0.17639 -0.17639,0 -0.26459,-0.0882 -0.44097,-0.0882 -0.17639,-0.0882 -0.26459,-0.17639 -0.35278,-0.26458 -0.0882,-0.0882 -0.17639,-0.17639 -0.26459,-0.26458 0,-0.0882 -0.0882,-0.17639 -0.0882,-0.35278 0,-0.0882 0,-0.17639 0,-0.26458 -0.0882,-0.17639 -0.0882,-0.26459 -0.0882,-0.35278 0,-0.17639 0,-0.26459 0.0882,-0.35278 0,-0.17639 0,-0.26458 0,-0.35278 0,-0.0882 0.0882,-0.26458 0.0882,-0.35278 0.0882,-0.0882 0.17639,-0.17638 0.26459,-0.26458 0.0882,-0.0882 0.17639,-0.17639 0.35278,-0.17639 0.17638,-0.0882 0.26458,-0.0882 0.44097,-0.0882 0.17639,0 0.35278,0 0.44097,0.0882 0.17639,0 0.26458,0.0882 0.35278,0.17639 0.0882,0.0882 0.17639,0.17639 0.26458,0.35278 0,0.0882 0.0882,0.17639 0.0882,0.35278 -0.44097,0 -0.44097,0 -0.44097,0 0,-0.0882 0,-0.17639 0,-0.26459 -0.0882,0 -0.0882,-0.0882 -0.17639,-0.17639 0,0 -0.0882,-0.0882 -0.17639,-0.17638 -0.0882,0 -0.26458,0 -0.35278,0 -0.0882,0 -0.17639,0 -0.26458,0 -0.0882,0.0882 -0.17639,0.17638 -0.26459,0.17638 -0.0882,0.0882 -0.0882,0.17639 -0.17638,0.26459 0,0.0882 -0.0882,0.17639 -0.0882,0.26458 0,0.0882 0,0.17639 0,0.26458 0,0.0882 0,0.17639 0,0.26459 0,0 0,0.0882 0,0.17639 0,0.0882 0,0.17639 0,0.26458 0,0.0882 0.0882,0.17639 0.0882,0.26458 0.0882,0.0882 0.0882,0.17639 0.17638,0.26459 0.0882,0.0882 0.17639,0.0882 0.26459,0.17639 0.0882,0 0.17639,0 0.26458,0 0.0882,0 0.26458,0 0.35278,0 0.0882,-0.0882 0.17639,-0.0882 0.17639,-0.17639 0.0882,-0.0882 0.0882,-0.17639 0.17639,-0.17639 0,-0.0882 0,-0.17639 0,-0.26459 z"
         id="path3711" />
      <path
         inkscape:connector-curvature="0"
         style="fill:#1d4757;fill-opacity:1;fill-rule:nonzero;stroke:none;stroke-width:0.26458332"
         d="m 107.58462,166.07617 c 0,-0.0882 0,-0.17639 0,-0.26458 0,-0.0882 0,-0.17639 0,-0.26458 -0.0882,-0.0882 -0.0882,-0.17639 -0.0882,-0.26459 -0.0882,-0.0882 -0.0882,-0.17639 -0.17638,-0.26458 -0.0882,0 -0.17639,-0.0882 -0.26459,-0.17639 -0.0882,0 -0.17639,0 -0.26458,0 -0.0882,0 -0.26458,0 -0.35278,0 -0.0882,0.0882 -0.17639,0.17639 -0.26458,0.17639 0,0.0882 -0.0882,0.17639 -0.0882,0.26458 -0.0882,0.0882 -0.0882,0.17639 -0.0882,0.26459 0,0.0882 0,0.17639 0,0.26458 0,0.0882 0,0.17639 0,0.26458 0,0 0,0.0882 0,0.17639 0,0.0882 0,0.17639 0,0.26459 0,0.0882 0,0.17638 0.0882,0.26458 0,0.0882 0.0882,0.17639 0.0882,0.26458 0.0882,0.0882 0.17639,0.0882 0.26458,0.17639 0.0882,0 0.26458,0 0.35278,0 0.0882,0 0.17639,0 0.26458,0 0.0882,-0.0882 0.17639,-0.0882 0.26459,-0.17639 0.0882,-0.0882 0.0882,-0.17639 0.17638,-0.26458 0,-0.0882 0,-0.17639 0.0882,-0.26458 0,-0.0882 0,-0.17639 0,-0.26459 0,-0.0882 0,-0.17639 0,-0.17639 m 0.35278,0 c 0,0.0882 0,0.17639 0,0.35278 0,0.0882 0,0.17639 0,0.26458 -0.0882,0.17639 -0.0882,0.26459 -0.17639,0.35278 0,0.0882 -0.0882,0.17639 -0.17639,0.26459 -0.0882,0.0882 -0.26458,0.17638 -0.35278,0.26458 -0.17638,0 -0.26458,0.0882 -0.44097,0.0882 -0.17639,0 -0.35278,-0.0882 -0.44097,-0.0882 -0.17639,-0.0882 -0.26458,-0.17639 -0.44097,-0.26458 0,-0.0882 -0.0882,-0.17639 -0.17639,-0.26459 0,-0.0882 -0.0882,-0.17639 -0.0882,-0.35278 0,-0.0882 -0.0882,-0.17638 -0.0882,-0.26458 0,-0.17639 0,-0.26458 0,-0.35278 0,-0.17639 0,-0.26458 0,-0.35277 0,-0.17639 0.0882,-0.26459 0.0882,-0.35278 0,-0.0882 0.0882,-0.26459 0.0882,-0.35278 0.0882,-0.0882 0.17639,-0.17639 0.17639,-0.26458 0.17639,-0.0882 0.26458,-0.17639 0.44097,-0.17639 0.0882,-0.0882 0.26458,-0.0882 0.44097,-0.0882 0.17639,0 0.26459,0 0.44097,0.0882 0.0882,0 0.26459,0.0882 0.35278,0.17639 0.0882,0.0882 0.17639,0.17639 0.17639,0.26458 0.0882,0.0882 0.0882,0.26458 0.17639,0.35278 0,0.0882 0,0.17639 0,0.35278 0,0.0882 0,0.17638 0,0.35277 z"
         id="path3713" />
      <path
         inkscape:connector-curvature="0"
         style="fill:#1d4757;fill-opacity:1;fill-rule:nonzero;stroke:none;stroke-width:0.26458332"
         d="m 110.75962,167.57548 -1.4993,-2.46945 v 2.46945 h -0.35278 v -3.08681 h 0.44097 l 1.49931,2.46945 v -2.46945 h 0.35277 v 3.08681 z"
         id="path3715" />
      <path
         inkscape:connector-curvature="0"
         style="fill:#1d4757;fill-opacity:1;fill-rule:nonzero;stroke:none;stroke-width:0.26458332"
         d="m 114.37559,166.69353 c 0,0.17639 -0.0882,0.26459 -0.0882,0.35278 -0.0882,0.0882 -0.0882,0.17639 -0.17639,0.26459 -0.0882,0.0882 -0.26458,0.17638 -0.44097,0.26458 -0.0882,0 -0.26458,0 -0.44097,0 -0.35278,0 -0.61736,-0.0882 -0.88194,-0.26458 -0.0882,-0.0882 -0.17639,-0.17639 -0.26459,-0.35278 0,-0.0882 -0.0882,-0.17639 -0.0882,-0.35278 0.44098,0 0.44098,0 0.44098,0 0,0.0882 0,0.17639 0.0882,0.26458 0,0.0882 0.0882,0.17639 0.0882,0.17639 0.0882,0.0882 0.17638,0.17639 0.26458,0.17639 0.17639,0 0.26458,0 0.35278,0 0.0882,0 0.26458,0 0.35277,0 0.0882,0 0.17639,-0.0882 0.17639,-0.17639 0.0882,0 0.0882,-0.0882 0.17639,-0.0882 0,-0.0882 0,-0.17639 0,-0.26458 0,-0.0882 0,-0.17639 -0.0882,-0.26459 -0.0882,-0.0882 -0.26458,-0.17639 -0.44097,-0.17639 -0.0882,0 -0.0882,0 -0.17639,-0.0882 -0.0882,0 -0.17639,0 -0.26458,0 -0.0882,0 -0.26458,0 -0.35278,-0.0882 -0.0882,0 -0.17639,-0.0882 -0.26458,-0.17638 0,-0.0882 -0.0882,-0.0882 -0.17639,-0.17639 0,-0.17639 0,-0.26459 0,-0.35278 0,-0.0882 0,-0.26458 0.0882,-0.35278 0,-0.0882 0.0882,-0.17639 0.17639,-0.26458 0.17639,-0.17639 0.44097,-0.26459 0.79375,-0.26459 0.17639,0 0.26458,0 0.44097,0 0.0882,0.0882 0.26459,0.17639 0.35278,0.26459 0.17639,0.17639 0.26458,0.35278 0.26458,0.61736 -0.35277,0 -0.35277,0 -0.35277,0 0,0 -0.0882,-0.0882 -0.0882,-0.17639 0,-0.0882 -0.0882,-0.0882 -0.0882,-0.17639 -0.0882,-0.0882 -0.17639,-0.0882 -0.26459,-0.17639 -0.0882,0 -0.17639,0 -0.26458,0 -0.0882,0 -0.26458,0 -0.35278,0 -0.0882,0.0882 -0.17639,0.0882 -0.17639,0.17639 -0.0882,0.0882 -0.0882,0.0882 -0.0882,0.17639 -0.0882,0 -0.0882,0.0882 -0.0882,0.17639 0,0.0882 0,0.0882 0.0882,0.17639 0,0 0,0.0882 0.0882,0.0882 0,0.0882 0.0882,0.0882 0.0882,0.0882 0.0882,0 0.17639,0.0882 0.17639,0.0882 0.0882,0 0.17639,0 0.26459,0 0.0882,0 0.17639,0 0.26458,0.0882 0.26458,0 0.44097,0.0882 0.61736,0.26458 0.17639,0.0882 0.26458,0.35278 0.26458,0.52917 z"
         id="path3717" />
      <path
         inkscape:connector-curvature="0"
         style="fill:#1d4757;fill-opacity:1;fill-rule:nonzero;stroke:none;stroke-width:0.26458332"
         d="m 117.37421,166.42895 c 0,0.17639 0,0.35278 -0.0882,0.52917 0,0.17639 -0.0882,0.26458 -0.17639,0.35278 -0.17639,0.0882 -0.26458,0.17638 -0.35278,0.26458 -0.17639,0 -0.35278,0 -0.52917,0 -0.17638,0 -0.26458,0 -0.44097,0 -0.0882,-0.0882 -0.26458,-0.17639 -0.35278,-0.26458 -0.0882,-0.0882 -0.17638,-0.17639 -0.17638,-0.35278 -0.0882,-0.17639 -0.0882,-0.35278 -0.0882,-0.52917 0,-1.94028 0,-1.94028 0,-1.94028 0.35278,0 0.35278,0 0.35278,0 0,1.94028 0,1.94028 0,1.94028 0,0.17639 0,0.26458 0.0882,0.35278 0,0.0882 0,0.17639 0.0882,0.26458 0.0882,0.0882 0.17639,0.0882 0.26458,0.17639 0.0882,0 0.17639,0 0.26458,0 0.17639,0 0.26459,0 0.35278,0 0.0882,-0.0882 0.17639,-0.0882 0.26459,-0.17639 0,-0.0882 0.0882,-0.17639 0.0882,-0.26458 0.0882,-0.0882 0.0882,-0.17639 0.0882,-0.35278 0,-1.94028 0,-1.94028 0,-1.94028 0.35277,0 0.35277,0 0.35277,0 z"
         id="path3719" />
      <path
         inkscape:connector-curvature="0"
         style="fill:#1d4757;fill-opacity:1;fill-rule:nonzero;stroke:none;stroke-width:0.26458332"
         d="m 118.34434,167.57548 v -3.08681 h 0.44098 v 2.73403 h 1.41111 v 0.35278 z"
         id="path3721" />
      <path
         inkscape:connector-curvature="0"
         style="fill:#1d4757;fill-opacity:1;fill-rule:nonzero;stroke:none;stroke-width:0.26458332"
         d="m 121.43115,164.84145 v 2.73403 h -0.35278 v -2.73403 h -0.97014 v -0.35278 h 2.20486 v 0.35278 z"
         id="path3723" />
      <path
         inkscape:connector-curvature="0"
         style="fill:#1d4757;fill-opacity:1;fill-rule:nonzero;stroke:none;stroke-width:0.26458332"
         d="m 123.63601,164.92965 -0.52917,1.5875 h 1.05834 z m 0.97014,2.64583 -0.26458,-0.70556 h -1.32292 l -0.26458,0.70556 h -0.35278 l 1.05833,-3.08681 h 0.44097 l 1.05834,3.08681 z"
         id="path3725" />
      <path
         inkscape:connector-curvature="0"
         style="fill:#1d4757;fill-opacity:1;fill-rule:nonzero;stroke:none;stroke-width:0.26458332"
         d="m 127.51657,167.57548 -1.49931,-2.46945 v 2.46945 h -0.35278 v -3.08681 h 0.44098 l 1.4993,2.46945 v -2.46945 h 0.35278 v 3.08681 z"
         id="path3727" />
      <path
         inkscape:connector-curvature="0"
         style="fill:#1d4757;fill-opacity:1;fill-rule:nonzero;stroke:none;stroke-width:0.26458332"
         d="m 129.98601,164.84145 v 2.73403 h -0.35278 v -2.73403 h -0.97014 v -0.35278 h 2.20487 v 0.35278 z"
         id="path3729" />
      <path
         inkscape:connector-curvature="0"
         style="fill:#1d4757;fill-opacity:1;fill-rule:nonzero;stroke:none;stroke-width:0.26458332"
         d="m 133.60198,166.69353 c 0,0.17639 0,0.26459 -0.0882,0.35278 0,0.0882 -0.0882,0.17639 -0.17638,0.26459 -0.0882,0.0882 -0.17639,0.17638 -0.35278,0.26458 -0.17639,0 -0.35278,0 -0.52917,0 -0.35278,0 -0.61736,-0.0882 -0.79375,-0.26458 -0.17639,-0.0882 -0.17639,-0.17639 -0.26458,-0.35278 -0.0882,-0.0882 -0.0882,-0.17639 -0.0882,-0.35278 0.35278,0 0.35278,0 0.35278,0 0,0.0882 0.0882,0.17639 0.0882,0.26458 0,0.0882 0.0882,0.17639 0.17639,0.17639 0.0882,0.0882 0.17638,0.17639 0.26458,0.17639 0.0882,0 0.17639,0 0.26458,0 0.17639,0 0.26459,0 0.35278,0 0.0882,0 0.17639,-0.0882 0.26458,-0.17639 0,0 0.0882,-0.0882 0.0882,-0.0882 0,-0.0882 0.0882,-0.17639 0.0882,-0.26458 0,-0.0882 -0.0882,-0.17639 -0.17639,-0.26459 -0.0882,-0.0882 -0.17639,-0.17639 -0.35277,-0.17639 -0.0882,0 -0.17639,0 -0.26459,-0.0882 -0.0882,0 -0.17639,0 -0.26458,0 -0.0882,0 -0.17639,0 -0.26458,-0.0882 -0.0882,0 -0.17639,-0.0882 -0.26459,-0.17638 -0.0882,-0.0882 -0.17639,-0.0882 -0.17639,-0.17639 -0.0882,-0.17639 -0.0882,-0.26459 -0.0882,-0.35278 0,-0.0882 0,-0.26458 0.0882,-0.35278 0,-0.0882 0.0882,-0.17639 0.17639,-0.26458 0.26459,-0.17639 0.52917,-0.26459 0.79375,-0.26459 0.17639,0 0.35278,0 0.44097,0 0.17639,0.0882 0.26459,0.17639 0.35278,0.26459 0.17639,0.17639 0.26459,0.35278 0.26459,0.61736 -0.35278,0 -0.35278,0 -0.35278,0 0,0 0,-0.0882 -0.0882,-0.17639 0,-0.0882 0,-0.0882 -0.0882,-0.17639 0,-0.0882 -0.0882,-0.0882 -0.17639,-0.17639 -0.0882,0 -0.17639,0 -0.35278,0 -0.0882,0 -0.17639,0 -0.26458,0 -0.0882,0.0882 -0.17639,0.0882 -0.26459,0.17639 0,0.0882 -0.0882,0.0882 -0.0882,0.17639 0,0 0,0.0882 0,0.17639 0,0.0882 0,0.0882 0,0.17639 0,0 0.0882,0.0882 0.0882,0.0882 0.0882,0.0882 0.0882,0.0882 0.17639,0.0882 0,0 0.0882,0.0882 0.17639,0.0882 0.0882,0 0.17639,0 0.26458,0 0.0882,0 0.17639,0 0.26459,0.0882 0.17639,0 0.44097,0.0882 0.52916,0.26458 0.17639,0.0882 0.26459,0.35278 0.26459,0.52917 z"
         id="path3731" />
      <path
         inkscape:connector-curvature="0"
         style="fill:#1d4757;fill-opacity:1;fill-rule:evenodd;stroke:none;stroke-width:0.26458332"
         d="m 90.563098,135.29631 c 0.35277,-0.61736 0.17638,-1.4993 0.26458,-2.20486 -0.35278,-1.32292 -0.61736,-2.64583 -1.41111,-3.96875 -0.0882,-0.26458 -0.35278,-0.44097 -0.44097,-0.70555 -1.05834,-1.41112 -2.46945,-2.73403 -4.05695,-3.88056 -0.44097,-0.26458 -0.88194,-0.61736 -1.41111,-0.79375 -0.61736,-0.26458 -1.41111,-0.44097 -1.5875,0.35278 -0.0882,0.17639 -0.0882,0.52916 -0.0882,0.79375 0,0.26458 0,0.61736 0,0.79375 0,0 0.0882,0.0882 0.17638,0.17639 0.0882,0.35277 0.0882,0.70555 0.26459,1.14652 0.35278,0.61737 0.79375,1.41112 1.32291,2.11667 0.88195,1.23472 2.02848,2.38125 3.2632,3.43958 1.23472,1.05834 2.46944,2.02848 3.70417,2.73403 m 4.14513,4.58611 c 0.70556,0.44098 1.49931,0.52917 2.29306,0.61736 0.88194,0 1.76389,0 2.64583,-0.26458 0.529172,-0.17639 1.234732,-0.35278 1.763892,-0.61736 0,0 0,-0.0882 0,-0.0882 0,0 0,0 0,0 -1.940282,-0.52917 -3.968752,-0.61736 -5.909032,0 -0.26458,0.0882 -0.61736,0.0882 -0.79375,0.35278 m -2.29305,-3.43959 c 0.0882,0 0.17639,0.0882 0.26458,0.0882 0.97014,0.44097 1.76389,0.97014 2.73403,1.32292 1.94028,0.70555 4.05694,1.14652 5.997222,1.32291 0.44097,0.0882 0.70556,0.0882 1.14653,0.0882 0.35278,0 1.14653,-0.0882 1.41111,0.0882 0,0 0,0 0,0 0,0.0882 0,0.0882 0,0.0882 0,0 0,0.0882 -0.0882,0.0882 -0.97014,-0.0882 -1.94028,0.17639 -3.0868,0.52917 -0.70556,0.26458 -1.411122,0.61736 -2.028482,1.14653 -1.67569,1.41111 -2.46944,3.52778 -0.35277,4.6743 0.97013,0.52917 2.469442,0.52917 3.351382,-0.0882 0.17639,-0.0882 0.35278,-0.26458 0.44098,-0.35278 0.70555,-0.70555 1.05833,-1.76388 0.97014,-2.55763 -0.0882,-0.26459 -0.26459,-0.61737 -0.44098,-0.88195 -0.17639,-0.17639 -0.44097,-0.26458 -0.44097,-0.52917 0.26458,0.0882 0.44097,0.35278 0.61736,0.61737 0.79375,1.23472 0.79375,2.82222 -0.61736,3.70416 -1.32292,0.88195 -3.792362,0.88195 -5.027082,0 -0.35278,-0.26458 -0.70556,-0.52916 -0.79375,-0.79375 -0.52917,-1.14653 0.17639,-2.46944 1.41111,-3.52778 0.44097,-0.44097 0.97014,-0.61736 1.41111,-0.97013 -0.88194,0.17638 -1.85208,0.26458 -2.82222,0.17638 -0.88195,-0.0882 -1.85209,-0.0882 -2.73403,-0.79375 0.26458,-0.44097 0.79375,-0.70555 1.14653,-0.79375 0.97014,-0.26458 2.11666,-0.17638 2.99861,-0.35277 -1.41111,-0.26459 -2.82222,-0.88195 -4.23333,-1.49931 -0.52917,-0.17639 -1.05834,-0.26458 -1.41112,-0.70555 -0.52916,0 -0.97013,-0.52917 -1.4993,-0.61737 -0.52917,1.6757 -1.32292,3.35139 -2.99861,5.02709 -0.26459,0.26458 -0.61736,0.52916 -0.97014,0.79375 -1.76389,1.14652 -3.70417,1.76389 -5.55626,1.94027 -1.5875,0.0882 -3.26319,-0.17638 -4.7625,-1.05833 -0.26458,-0.17639 -0.52916,-0.26458 -0.61736,-0.52917 0.17639,-0.17638 0.26459,0.0882 0.35278,0.0882 0.35278,0.17639 0.70556,0.44097 1.14653,0.52917 1.41111,0.61736 2.91042,0.79375 4.40972,0.61736 0.35278,0 0.61736,-0.17639 0.97014,-0.17639 0.88194,-0.26459 1.85208,-0.52917 2.64583,-0.97014 0.35278,-0.0882 0.70556,-0.26458 0.97014,-0.44097 0.17639,-0.0882 0.44097,-0.35278 0.61736,-0.52917 0.79375,-0.52917 1.5875,-1.32292 2.11667,-2.02847 0.35278,-0.52917 0.61736,-1.05834 0.79375,-1.49931 0.35278,-0.61736 0.61736,-1.32291 0.61736,-1.94028 -1.85208,-1.05833 -3.88055,-2.64583 -5.73264,-4.32152 -0.70555,-0.70556 -1.23472,-1.41111 -1.76389,-2.11667 -1.32291,-1.76389 -2.02847,-3.70417 -1.5875,-5.37986 0.17639,-0.26458 0.26459,-0.44097 0.52917,-0.61736 0.35278,-0.17639 0.79375,0 1.32292,0.0882 1.76389,0.61736 3.88055,2.29305 5.29166,3.96875 1.23473,1.41111 1.85209,2.91041 2.20486,4.40972 0.26459,1.23472 0.26459,2.55764 0.0882,3.70417 0.52917,0.35277 1.05834,0.61736 1.5875,0.97013 m 29.721532,-3.88055 c 1.32292,-1.05833 2.46945,-2.20486 3.35139,-3.43958 0.52917,-0.70556 0.97014,-1.49931 1.23472,-2.11667 0.17639,-0.44097 0.26459,-0.79375 0.35278,-1.14653 0,-0.0882 0.0882,-0.17639 0.0882,-0.17639 0.0882,-0.17639 0.0882,-0.52916 0.0882,-0.79375 0,-0.26458 0,-0.61736 -0.0882,-0.79375 -0.26458,-0.79375 -0.97014,-0.61736 -1.6757,-0.35277 -0.52916,0.17638 -0.97013,0.52916 -1.41111,0.79374 -1.4993,1.14653 -2.91041,2.46945 -3.96875,3.88056 -0.0882,0.26458 -0.35277,0.44097 -0.44097,0.70556 -0.79375,1.32291 -1.14653,2.64583 -1.41111,3.96875 0.0882,0.70555 -0.0882,1.5875 0.26458,2.20486 1.14653,-0.70556 2.46945,-1.6757 3.61598,-2.73403 m -8.55487,6.96736 c -1.94027,-0.61736 -3.96875,-0.52917 -5.90902,0 -0.0882,0 -0.0882,0 -0.0882,0 0,0 0.0882,0.0882 0.0882,0.0882 0.52916,0.26459 1.23472,0.44097 1.76389,0.61736 0.88194,0.26459 1.76388,0.26459 2.64583,0.26459 0.79375,-0.0882 1.5875,-0.17639 2.29305,-0.61736 -0.17638,-0.26459 -0.52916,-0.26459 -0.79375,-0.35278 m 4.58612,-4.05695 c -0.0882,-1.14652 -0.17639,-2.46944 0.17638,-3.70416 0.26459,-1.49931 0.97014,-2.99861 2.11667,-4.40973 1.41111,-1.67569 3.61597,-3.35138 5.37986,-3.96875 0.44097,-0.0882 0.88195,-0.26458 1.32292,-0.0882 0.26458,0.17639 0.35278,0.35278 0.52917,0.61737 0.44097,1.67569 -0.35278,3.61597 -1.5875,5.37986 -0.52917,0.70555 -1.14653,1.41111 -1.76389,2.11666 -1.85209,1.6757 -3.88056,3.2632 -5.82084,4.32153 0.0882,0.61736 0.35278,1.32292 0.70556,1.94028 0.17639,0.44097 0.44097,0.97014 0.79375,1.49931 0.52917,0.70555 1.32292,1.4993 2.02847,2.02847 0.26458,0.17639 0.52917,0.44097 0.70556,0.52916 0.26458,0.17639 0.61736,0.35278 0.88194,0.44098 0.88195,0.44097 1.85208,0.70555 2.64583,0.97014 0.35278,0 0.70556,0.17638 1.05834,0.17638 1.41111,0.17639 2.99861,0 4.40972,-0.61736 0.35278,-0.0882 0.70556,-0.35277 1.14653,-0.52916 0.0882,0 0.17639,-0.26459 0.35278,-0.0882 -0.0882,0.26458 -0.44098,0.35277 -0.61737,0.52916 -1.4993,0.88195 -3.175,1.14653 -4.7625,1.05834 -1.94027,-0.17639 -3.88055,-0.79375 -5.64444,-1.94028 -0.35278,-0.26459 -0.61736,-0.52917 -0.88194,-0.79375 -1.76389,-1.6757 -2.55764,-3.35139 -2.99862,-5.02709 -0.52916,0.0882 -1.05833,0.61737 -1.4993,0.61737 -0.44097,0.44097 -0.97014,0.52916 -1.41111,0.70555 -1.41111,0.61736 -2.82222,1.23472 -4.23334,1.49931 0.88195,0.17639 2.02848,0.0882 2.91042,0.35277 0.44097,0.0882 0.97014,0.35278 1.14653,0.79375 -0.79375,0.70556 -1.76389,0.70556 -2.73403,0.79375 -0.88194,0.0882 -1.85208,0 -2.73403,-0.17638 0.44098,0.35277 0.97014,0.52916 1.41111,0.97013 1.14653,1.05834 1.94028,2.38125 1.41112,3.52778 -0.0882,0.26459 -0.44098,0.52917 -0.79375,0.79375 -1.23473,0.88195 -3.70417,0.88195 -5.02709,0 -1.41111,-0.88194 -1.4993,-2.46944 -0.61736,-3.70416 0.17639,-0.26459 0.35278,-0.52917 0.61736,-0.61737 0,0.26459 -0.26458,0.35278 -0.44097,0.52917 -0.17639,0.26458 -0.35278,0.61736 -0.44097,0.88195 -0.17639,0.79375 0.17639,1.85208 0.97014,2.55763 0.0882,0.0882 0.26458,0.26459 0.35277,0.35278 0.88195,0.61736 2.46945,0.61736 3.43959,0.0882 2.11666,-1.14652 1.32291,-3.26319 -0.35278,-4.6743 -0.61736,-0.52917 -1.32292,-0.88194 -2.11667,-1.14653 -1.05833,-0.35278 -2.02847,-0.61736 -3.0868,-0.52916 0,0 0,-0.0882 0,-0.0882 0,0 0,0 0,-0.0882 0,0 0,0 0,0 0.17639,-0.17639 1.05833,-0.0882 1.41111,-0.0882 0.35278,0 0.70555,0 1.05833,-0.0882 1.94028,-0.17639 4.05695,-0.61737 5.99722,-1.32292 0.97014,-0.35278 1.85209,-0.88195 2.82223,-1.32292 0.0882,0 0.0882,-0.0882 0.26458,-0.0882 0.52917,-0.35278 1.05833,-0.61736 1.49931,-0.97014 m 0.61736,-26.01736 c -0.35278,0.61736 -0.17639,1.41111 -0.26459,2.20486 0.35278,1.23472 0.61736,2.64583 1.41111,3.96875 0.0882,0.17639 0.35278,0.44097 0.44098,0.70556 1.05833,1.32291 2.46944,2.73402 4.05694,3.79236 0.44097,0.35278 0.88195,0.61736 1.32292,0.88194 0.70555,0.26459 1.41111,0.44097 1.67569,-0.44097 0.0882,-0.17639 0.0882,-0.44097 0.0882,-0.79375 0,-0.17639 0,-0.52917 0,-0.70556 -0.0882,-0.0882 -0.0882,-0.0882 -0.17638,-0.17638 -0.0882,-0.35278 -0.0882,-0.70556 -0.26459,-1.14653 -0.35277,-0.70556 -0.79375,-1.41111 -1.32291,-2.11667 -0.88195,-1.32292 -2.02847,-2.38125 -3.2632,-3.52778 -1.23472,-0.97014 -2.46944,-2.02847 -3.70416,-2.64583 m -4.14514,-4.58611 c -0.70556,-0.44097 -1.49931,-0.52917 -2.29306,-0.61736 -0.88194,-0.0882 -1.76389,0 -2.64583,0.26458 -0.52917,0.0882 -1.23472,0.35278 -1.76389,0.61736 0,0 0,0 0,0 0,0.0882 0,0.0882 0,0.0882 1.94028,0.44097 3.96875,0.52916 5.90903,0 0.26458,-0.0882 0.61736,-0.17639 0.79375,-0.35278 m 2.29305,3.35139 c -0.0882,0 -0.17639,0 -0.26458,-0.0882 -0.97014,-0.35277 -1.85208,-0.88194 -2.73403,-1.23472 -1.94028,-0.79375 -4.05694,-1.23472 -5.99722,-1.41111 -0.44097,0 -0.70556,0 -1.14653,0 -0.35278,0 -1.14653,0 -1.41111,-0.17639 0,0 0,0 0,0 0,0 0,0 0,-0.0882 0,0 0,0 0,0 1.05833,0 2.02847,-0.26459 3.175,-0.61737 0.70556,-0.17638 1.41111,-0.61736 2.02847,-1.14652 1.6757,-1.32292 2.46945,-3.43959 0.35278,-4.58611 -0.97014,-0.52917 -2.46944,-0.52917 -3.35139,0 -0.17639,0.17639 -0.35278,0.26458 -0.44097,0.44097 -0.70556,0.70555 -1.14653,1.67569 -0.97014,2.55764 0.0882,0.17639 0.26458,0.61736 0.44097,0.88194 0.17639,0.17639 0.44098,0.17639 0.44098,0.44097 -0.26459,-0.0882 -0.44098,-0.26458 -0.61737,-0.52916 -0.79375,-1.32292 -0.79375,-2.82222 0.61737,-3.79236 1.32291,-0.88195 3.79236,-0.79375 5.02708,0.0882 0.35278,0.17639 0.70555,0.52917 0.79375,0.79375 0.52917,1.14653 -0.17639,2.46945 -1.41111,3.52778 -0.44097,0.35278 -0.97014,0.61736 -1.41111,0.88194 0.88194,-0.0882 1.85208,-0.26458 2.82222,-0.17639 0.88194,0.0882 1.85208,0.17639 2.73403,0.88195 -0.26459,0.44097 -0.79375,0.61736 -1.14653,0.79375 -0.97014,0.17639 -2.11667,0.17639 -2.99861,0.26458 1.41111,0.35278 2.82222,0.88195 4.23333,1.49931 0.52917,0.26458 1.05833,0.35278 1.41111,0.70555 0.52917,0.0882 0.97014,0.61736 1.49931,0.70556 0.52916,-1.76389 1.32291,-3.43958 2.99861,-5.02708 0.26458,-0.26459 0.52917,-0.52917 0.97014,-0.79375 1.76389,-1.23473 3.70416,-1.85209 5.55625,-1.94028 1.5875,-0.0882 3.26319,0.17639 4.7625,1.05833 0.26458,0.0882 0.52916,0.26458 0.61736,0.52917 -0.17639,0.17639 -0.26458,-0.0882 -0.35278,-0.0882 -0.35278,-0.26458 -0.70555,-0.44097 -1.14653,-0.61736 -1.41111,-0.52916 -2.99861,-0.70555 -4.40972,-0.52916 -0.35278,0 -0.61736,0.0882 -0.97014,0.0882 -0.88194,0.26458 -1.85208,0.52917 -2.64583,0.97014 -0.35278,0.17639 -0.70556,0.26458 -0.97014,0.44097 -0.17639,0.17639 -0.44097,0.35278 -0.61736,0.52917 -0.79375,0.61736 -1.5875,1.32291 -2.11667,2.11666 -0.35278,0.52917 -0.61736,0.97014 -0.79375,1.49931 -0.35278,0.61736 -0.61736,1.32292 -0.70555,1.94028 1.94027,1.05833 3.96875,2.55764 5.82083,4.32153 0.61736,0.61736 1.23472,1.32291 1.76389,2.02847 1.32292,1.76389 2.02847,3.79236 1.5875,5.46805 -0.17639,0.17639 -0.26458,0.44098 -0.52917,0.61736 -0.35278,0.17639 -0.79375,0 -1.32291,-0.17638 -1.76389,-0.52917 -3.88056,-2.20487 -5.37987,-3.88056 -1.14652,-1.49931 -1.76388,-2.99861 -2.11666,-4.40972 -0.26459,-1.23472 -0.26459,-2.64584 -0.0882,-3.79236 -0.52916,-0.35278 -1.05833,-0.52917 -1.5875,-0.97014 m -29.721522,3.88055 c -1.32292,1.14653 -2.46945,2.20486 -3.35139,3.52778 -0.52917,0.70556 -0.97014,1.41111 -1.23472,2.11667 -0.17639,0.44097 -0.26459,0.79375 -0.35278,1.14653 0,0.0882 -0.0882,0.0882 -0.0882,0.17638 -0.0882,0.17639 -0.0882,0.52917 -0.0882,0.70556 0,0.35278 0,0.61736 0.0882,0.79375 0.26459,0.88194 0.97014,0.70556 1.6757,0.44097 0.52916,-0.26458 0.88194,-0.52916 1.32291,-0.88194 1.5875,-1.05834 2.99862,-2.46945 4.05695,-3.79236 0.0882,-0.26459 0.35278,-0.52917 0.44097,-0.70556 0.79375,-1.32292 1.14653,-2.73403 1.41111,-3.96875 -0.0882,-0.79375 0.0882,-1.5875 -0.26458,-2.20486 -1.14653,0.61736 -2.46945,1.67569 -3.61597,2.64583 m 8.55486,-6.87916 c 1.94028,0.52916 3.96875,0.44097 5.909022,0 0,0 0.0882,0 0.0882,-0.0882 -0.0882,0 -0.0882,0 -0.0882,0 -0.52916,-0.26458 -1.23472,-0.52916 -1.763882,-0.61736 -0.88195,-0.26458 -1.76389,-0.35278 -2.64584,-0.26458 -0.79375,0.0882 -1.5875,0.17639 -2.29305,0.61736 0.17639,0.17639 0.52916,0.26458 0.79375,0.35278 m -4.58611,3.96875 c 0.0882,1.14652 0.17639,2.55764 -0.17639,3.79236 -0.26459,1.41111 -0.97014,2.91041 -2.11667,4.40972 -1.41111,1.67569 -3.61597,3.35139 -5.37986,3.88056 -0.44097,0.17638 -0.88194,0.35277 -1.32292,0.17638 -0.26458,-0.17638 -0.35277,-0.44097 -0.52916,-0.61736 -0.44098,-1.67569 0.26458,-3.70416 1.5875,-5.46805 0.52916,-0.70556 1.14652,-1.41111 1.76389,-2.02847 1.85208,-1.76389 3.88055,-3.2632 5.82083,-4.32153 -0.0882,-0.61736 -0.35278,-1.32292 -0.70556,-1.94028 -0.17639,-0.52917 -0.44097,-0.97014 -0.79375,-1.49931 -0.52916,-0.79375 -1.32291,-1.4993 -2.02847,-2.11666 -0.26458,-0.17639 -0.52917,-0.35278 -0.70555,-0.52917 -0.26459,-0.17639 -0.61737,-0.26458 -0.88195,-0.44097 -0.88194,-0.44097 -1.85208,-0.70556 -2.64583,-0.97014 -0.35278,0 -0.70556,-0.0882 -1.05834,-0.0882 -1.41111,-0.17639 -2.99861,0 -4.40972,0.52916 -0.35278,0.17639 -0.70555,0.35278 -1.14653,0.61736 -0.0882,0 -0.17638,0.26459 -0.35277,0.0882 0.0882,-0.26459 0.44097,-0.44097 0.61736,-0.52917 1.4993,-0.88194 3.175,-1.14653 4.7625,-1.05833 1.85208,0.0882 3.88055,0.70555 5.64444,1.94028 0.35278,0.26458 0.61736,0.52916 0.88195,0.79375 1.67569,1.5875 2.55764,3.26319 2.99861,5.02708 0.52916,-0.0882 1.05833,-0.61736 1.4993,-0.70556 0.44098,-0.35277 0.97014,-0.44097 1.41111,-0.70555 1.41112,-0.61736 2.82223,-1.14653 4.23334,-1.49931 -0.88195,-0.0882 -2.02847,-0.0882 -2.91042,-0.26458 -0.44097,-0.17639 -0.97014,-0.35278 -1.23472,-0.79375 0.88194,-0.70556 1.85208,-0.79375 2.82222,-0.88195 0.88195,-0.0882 1.85208,0.0882 2.73403,0.17639 -0.44097,-0.26458 -0.97014,-0.52916 -1.41111,-0.88194 -1.23472,-1.05833 -1.94028,-2.38125 -1.41111,-3.52778 0.0882,-0.26458 0.44097,-0.61736 0.79375,-0.79375 1.23472,-0.88194 3.704162,-0.97014 5.027082,-0.0882 1.41111,0.97014 1.4993,2.46944 0.61736,3.79236 -0.17639,0.26458 -0.35278,0.44097 -0.61736,0.52916 0,-0.26458 0.26458,-0.26458 0.44097,-0.44097 0.17639,-0.26458 0.35278,-0.70555 0.44097,-0.88194 0.17639,-0.88195 -0.17639,-1.85209 -0.97014,-2.55764 -0.0882,-0.17639 -0.26458,-0.26458 -0.35277,-0.44097 -0.88195,-0.52917 -2.469452,-0.52917 -3.439592,0 -2.11666,1.14652 -1.32291,3.26319 0.35278,4.58611 0.61736,0.52916 1.322922,0.97014 2.116672,1.14653 1.05833,0.35277 2.02847,0.61736 3.0868,0.61736 0,0 0,0 0,0 0,0.0882 0,0.0882 0,0.0882 0,0 0,0 0,0 -0.26458,0.17639 -1.05833,0.17639 -1.41111,0.17639 -0.35278,0 -0.70555,0 -1.05833,0 -1.940282,0.17639 -4.056942,0.61736 -5.997222,1.41111 -0.97014,0.35278 -1.85209,0.88195 -2.82222,1.23472 -0.0882,0.0882 -0.17639,0.0882 -0.26459,0.0882 -0.52916,0.44097 -1.05833,0.61736 -1.4993,0.97014 z"
         id="path3733" />
      <path
         inkscape:connector-curvature="0"
         style="fill:#1d4757;fill-opacity:1;fill-rule:nonzero;stroke:none;stroke-width:0.26458332"
         d="m 113.75823,111.92478 c -1.05833,2.73403 -1.05833,2.73403 -1.05833,2.73403 -0.26458,0 -0.26458,0 -0.26458,0 0,-0.17639 0.0882,-0.44097 0.0882,-0.70555 0,-0.26459 -0.0882,-0.35278 -0.26459,-0.44098 -0.17638,-0.0882 -0.44097,-0.0882 -0.79375,-0.0882 -5.90902,0 -5.90902,0 -5.90902,0 -0.0882,19.2264 -0.0882,19.2264 -0.0882,19.2264 0,0.79375 0.0882,1.32292 0.17638,1.67569 0.17639,0.26459 0.35278,0.44098 0.52917,0.52917 0.26458,0.0882 0.61736,0.0882 1.05833,0.0882 0,0.26458 0,0.26458 0,0.26458 -6.08541,0 -6.08541,0 -6.08541,0 0,-0.26458 0,-0.26458 0,-0.26458 0.79375,-0.0882 1.23472,-0.17639 1.41111,-0.44097 0.26458,-0.26459 0.35278,-0.79375 0.35278,-1.49931 0.0882,-19.66736 0.0882,-19.66736 0.0882,-19.66736 -5.644452,0 -5.644452,0 -5.644452,0 -0.61736,0 -0.97014,0.0882 -1.14652,0.0882 -0.17639,0.0882 -0.26459,0.26458 -0.26459,0.52917 0,0.0882 0.0882,0.35277 0.17639,0.61736 -0.26458,0 -0.26458,0 -0.26458,0 -1.05834,-2.73403 -1.05834,-2.73403 -1.05834,-2.73403 0.26459,0 0.26459,0 0.26459,0 0.17639,0.35278 0.35278,0.61736 0.52916,0.70556 0.17639,0 0.52917,0.0882 1.14653,0.0882 14.904862,0.0882 14.904862,0.0882 14.904862,0.0882 0.61736,0 1.05834,-0.0882 1.32292,-0.17639 0.26458,-0.0882 0.44097,-0.26459 0.52917,-0.61736 z"
         id="path3735" />
    </g>
  </g>
</svg>
