<?xml version="1.0" encoding="UTF-8" standalone="no"?>
<!-- Generator: Adobe Illustrator 19.0.0, SVG Export Plug-In . SVG Version: 6.00 Build 0)  -->

<svg
   xmlns:dc="http://purl.org/dc/elements/1.1/"
   xmlns:cc="http://creativecommons.org/ns#"
   xmlns:rdf="http://www.w3.org/1999/02/22-rdf-syntax-ns#"
   xmlns:svg="http://www.w3.org/2000/svg"
   xmlns="http://www.w3.org/2000/svg"
   xmlns:sodipodi="http://sodipodi.sourceforge.net/DTD/sodipodi-0.dtd"
   xmlns:inkscape="http://www.inkscape.org/namespaces/inkscape"
   version="1.1"
   id="Layer_1"
   x="0px"
   y="0px"
   viewBox="0 0 20 20"
   xml:space="preserve"
   sodipodi:docname="tantum-download-brouchure.svg"
   width="20"
   height="20"
   inkscape:version="0.92.1 r15371"><metadata
     id="metadata78"><rdf:RDF><cc:Work
         rdf:about=""><dc:format>image/svg+xml</dc:format><dc:type
           rdf:resource="http://purl.org/dc/dcmitype/StillImage" /><dc:title /></cc:Work></rdf:RDF></metadata><defs
     id="defs76" /><sodipodi:namedview
     pagecolor="#ffffff"
     bordercolor="#666666"
     borderopacity="1"
     objecttolerance="10"
     gridtolerance="10"
     guidetolerance="10"
     inkscape:pageopacity="0"
     inkscape:pageshadow="2"
     inkscape:window-width="1600"
     inkscape:window-height="837"
     id="namedview74"
     showgrid="false"
     inkscape:zoom="33.4"
     inkscape:cx="4.8952095"
     inkscape:cy="10"
     inkscape:window-x="-8"
     inkscape:window-y="-8"
     inkscape:window-maximized="1"
     inkscape:current-layer="Layer_1" /><g
     id="g41"
     transform="matrix(0.01970276,0,0,0.01898441,4.9561142,5.139999)"><g
       id="g39"><path
         d="M 475.926,179.167 208.534,446.558 c -36.862,36.86 -96.837,36.86 -133.696,0 -17.855,-17.856 -27.689,-41.596 -27.689,-66.848 0,-25.252 9.833,-48.992 27.689,-66.847 L 333.316,54.382 c 22.117,-22.115 58.103,-22.115 80.219,0 10.713,10.713 16.612,24.958 16.612,40.108 0,15.152 -5.9,29.396 -16.613,40.109 L 155.056,393.08 c -7.373,7.371 -19.368,7.371 -26.74,0 -7.371,-7.373 -7.371,-19.366 0,-26.739 L 395.709,98.949 368.97,72.21 101.575,339.602 c -22.114,22.117 -22.114,58.102 0,80.217 22.117,22.117 58.101,22.117 80.218,0 L 440.274,161.34 c 36.861,-36.859 36.861,-96.835 0,-133.695 -36.861,-36.86 -96.837,-36.86 -133.696,0 L 48.098,286.123 C 23.1,311.121 9.333,344.358 9.333,379.71 c 0,35.353 13.767,68.59 38.765,93.587 25.805,25.805 59.69,38.702 93.587,38.702 33.889,0 67.788,-12.904 93.588,-38.702 L 502.665,205.905 Z"
         id="path37"
         inkscape:connector-curvature="0" /></g></g><g
     id="g43"
     transform="matrix(0.02027033,0,0,0.01953129,-0.18918299,9.999999)" /><g
     id="g45"
     transform="matrix(0.02027033,0,0,0.01953129,-0.18918299,9.999999)" /><g
     id="g47"
     transform="matrix(0.02027033,0,0,0.01953129,-0.18918299,9.999999)" /><g
     id="g49"
     transform="matrix(0.02027033,0,0,0.01953129,-0.18918299,9.999999)" /><g
     id="g51"
     transform="matrix(0.02027033,0,0,0.01953129,-0.18918299,9.999999)" /><g
     id="g53"
     transform="matrix(0.02027033,0,0,0.01953129,-0.18918299,9.999999)" /><g
     id="g55"
     transform="matrix(0.02027033,0,0,0.01953129,-0.18918299,9.999999)" /><g
     id="g57"
     transform="matrix(0.02027033,0,0,0.01953129,-0.18918299,9.999999)" /><g
     id="g59"
     transform="matrix(0.02027033,0,0,0.01953129,-0.18918299,9.999999)" /><g
     id="g61"
     transform="matrix(0.02027033,0,0,0.01953129,-0.18918299,9.999999)" /><g
     id="g63"
     transform="matrix(0.02027033,0,0,0.01953129,-0.18918299,9.999999)" /><g
     id="g65"
     transform="matrix(0.02027033,0,0,0.01953129,-0.18918299,9.999999)" /><g
     id="g67"
     transform="matrix(0.02027033,0,0,0.01953129,-0.18918299,9.999999)" /><g
     id="g69"
     transform="matrix(0.02027033,0,0,0.01953129,-0.18918299,9.999999)" /><g
     id="g71"
     transform="matrix(0.02027033,0,0,0.01953129,-0.18918299,9.999999)" /><circle
     id="path80"
     cx="10"
     cy="10"
     style="stroke-width:1.5;fill:#000000;stroke:#000000;stroke-opacity:1;stroke-miterlimit:4;stroke-dasharray:none;fill-opacity:0"
     r="9" /></svg>